<svg width="20" height="23" viewBox="0 0 20 23" fill="none" xmlns="http://www.w3.org/2000/svg">
<mask id="mask0" mask-type="alpha" maskUnits="userSpaceOnUse" x="0" y="0" width="20" height="23">
<path fill-rule="evenodd" clip-rule="evenodd" d="M0.75 1.125H19.5V22.3431H0.75V1.125Z" fill="white" stroke="white" stroke-width="0.3"/>
</mask>
<g mask="url(#mask0)">
<path fill-rule="evenodd" clip-rule="evenodd" d="M18.5892 6.16197L16.0855 10.7193H10.9215L14.8336 3.62727L18.3805 5.5219C18.6414 5.62431 18.7196 5.93155 18.5892 6.16197ZM15.4074 14.7646C14.7032 14.7646 14.1555 15.3279 14.1555 15.9935V17.4017C14.1555 18.093 14.7293 18.6307 15.4074 18.6307H17.0244V21.2934C17.0244 21.4214 16.9201 21.5238 16.7897 21.5238H1.79333C1.66293 21.5238 1.55861 21.4214 1.55861 21.2934V11.769C1.55861 11.641 1.66293 11.5386 1.79333 11.5386H16.7636C16.894 11.5386 16.9983 11.641 16.9983 11.769V14.7646H15.4074ZM17.8849 15.5838V17.8113H15.4072C15.1725 17.8113 14.99 17.6321 14.99 17.4017V15.9935C14.99 15.7631 15.1725 15.5838 15.4072 15.5838H17.8849ZM1.79333 9.66953H6.04447L5.47069 10.6937H1.79333C1.71509 10.6937 1.63685 10.6937 1.55861 10.7193V9.87436C1.55861 9.79755 1.66293 9.66953 1.79333 9.66953ZM11.1302 2.19347C11.2606 1.96304 11.5736 1.86063 11.8083 1.98865L12.4603 2.34709L7.87017 10.7193H6.43573L11.1302 2.19347ZM14.1034 3.21761L9.98264 10.7193H8.80901L13.2166 2.75676L14.1034 3.21761ZM18.7977 4.77941L12.1994 1.27178C11.5734 0.938942 10.7128 1.19497 10.3737 1.80945L6.5138 8.85031H1.8193C1.21945 8.85031 0.75 9.31116 0.75 9.90003V21.2934C0.75 21.8823 1.21945 22.3431 1.8193 22.3431H16.8156C17.4155 22.3431 17.8849 21.8823 17.8849 21.2934V18.6307H18.3283C18.563 18.6307 18.7456 18.4515 18.7456 18.221V15.1743C18.7456 14.9438 18.563 14.7646 18.3283 14.7646H17.8849V11.7691C17.8849 11.2826 17.5198 10.8473 17.0504 10.7449L19.3454 6.57163C19.6845 5.93155 19.4498 5.13785 18.7977 4.77941Z" fill="#858585"/>
<path d="M18.5892 6.16197L18.4586 6.08809L18.4577 6.08975L18.5892 6.16197ZM16.0855 10.7193V10.8693H16.1742L16.2169 10.7916L16.0855 10.7193ZM10.9215 10.7193L10.7902 10.6469L10.6675 10.8693H10.9215V10.7193ZM14.8336 3.62727L14.9043 3.49496L14.7737 3.42523L14.7022 3.55482L14.8336 3.62727ZM18.3805 5.5219L18.3099 5.6542L18.3176 5.65832L18.3257 5.66152L18.3805 5.5219ZM17.0244 18.6307H17.1744V18.4807H17.0244V18.6307ZM16.9983 14.7646V14.9146H17.1483V14.7646H16.9983ZM17.8849 15.5838H18.0349V15.4338H17.8849V15.5838ZM17.8849 17.8113V17.9613H18.0349V17.8113H17.8849ZM6.04447 9.66953L6.17533 9.74285L6.30044 9.51954H6.04447V9.66953ZM5.47069 10.6937V10.8437H5.55859L5.60155 10.767L5.47069 10.6937ZM1.55861 10.7193H1.40861V10.9262L1.60526 10.8618L1.55861 10.7193ZM11.1302 2.19347L10.9997 2.11959L10.9988 2.12112L11.1302 2.19347ZM11.8083 1.98865L11.8806 1.8572L11.8802 1.85696L11.8083 1.98865ZM12.4603 2.34709L12.5919 2.4192L12.6639 2.28782L12.5326 2.21564L12.4603 2.34709ZM7.87017 10.7193V10.8693H7.95899L8.00169 10.7914L7.87017 10.7193ZM6.43573 10.7193L6.30434 10.647L6.18191 10.8693H6.43573V10.7193ZM14.1034 3.21761L14.2348 3.28983L14.3087 3.1553L14.1725 3.08451L14.1034 3.21761ZM9.98264 10.7193V10.8693H10.0714L10.1141 10.7915L9.98264 10.7193ZM8.80901 10.7193L8.67778 10.6467L8.55453 10.8693H8.80901V10.7193ZM13.2166 2.75676L13.2858 2.62366L13.1562 2.55628L13.0854 2.68411L13.2166 2.75676ZM12.1994 1.27178L12.1289 1.40422L12.129 1.40423L12.1994 1.27178ZM10.3737 1.80945L10.2424 1.73698L10.2422 1.73734L10.3737 1.80945ZM6.5138 8.85031V9.00031H6.60263L6.64533 8.92241L6.5138 8.85031ZM17.8849 18.6307V18.4807H17.7349V18.6307H17.8849ZM17.8849 14.7646H17.7349V14.9146H17.8849V14.7646ZM17.0504 10.7449L16.9189 10.6727L16.8221 10.8487L17.0184 10.8915L17.0504 10.7449ZM19.3454 6.57163L19.4769 6.64392L19.478 6.64184L19.3454 6.57163ZM18.4577 6.08975L15.954 10.6471L16.2169 10.7916L18.7207 6.2342L18.4577 6.08975ZM16.0855 10.5693H10.9215V10.8693H16.0855V10.5693ZM11.0528 10.7918L14.9649 3.69972L14.7022 3.55482L10.7902 10.6469L11.0528 10.7918ZM14.7629 3.75957L18.3099 5.6542L18.4512 5.38959L14.9043 3.49496L14.7629 3.75957ZM18.3257 5.66152C18.4886 5.72548 18.5513 5.92439 18.4586 6.0881L18.7197 6.23585C18.8879 5.9387 18.7941 5.52313 18.4354 5.38228L18.3257 5.66152ZM15.4074 14.6146C14.6209 14.6146 14.0055 15.2444 14.0055 15.9935H14.3055C14.3055 15.4113 14.7855 14.9146 15.4074 14.9146V14.6146ZM14.0055 15.9935V17.4017H14.3055V15.9935H14.0055ZM14.0055 17.4017C14.0055 18.1804 14.6511 18.7807 15.4074 18.7807V18.4807C14.8074 18.4807 14.3055 18.0055 14.3055 17.4017H14.0055ZM15.4074 18.7807H17.0244V18.4807H15.4074V18.7807ZM16.8744 18.6307V21.2934H17.1744V18.6307H16.8744ZM16.8744 21.2934C16.8744 21.3359 16.8398 21.3738 16.7897 21.3738V21.6738C17.0003 21.6738 17.1744 21.5068 17.1744 21.2934H16.8744ZM16.7897 21.3738H1.79333V21.6738H16.7897V21.3738ZM1.79333 21.3738C1.74315 21.3738 1.70861 21.336 1.70861 21.2934H1.40861C1.40861 21.5068 1.58271 21.6738 1.79333 21.6738V21.3738ZM1.70861 21.2934V11.769H1.40861V21.2934H1.70861ZM1.70861 11.769C1.70861 11.7264 1.74315 11.6886 1.79333 11.6886V11.3886C1.58271 11.3886 1.40861 11.5556 1.40861 11.769H1.70861ZM1.79333 11.6886H16.7636V11.3886H1.79333V11.6886ZM16.7636 11.6886C16.8138 11.6886 16.8483 11.7264 16.8483 11.769H17.1483C17.1483 11.5556 16.9742 11.3886 16.7636 11.3886V11.6886ZM16.8483 11.769V14.7646H17.1483V11.769H16.8483ZM16.9983 14.6146H15.4074V14.9146H16.9983V14.6146ZM17.7349 15.5838V17.8113H18.0349V15.5838H17.7349ZM17.8849 17.6613H15.4072V17.9613H17.8849V17.6613ZM15.4072 17.6613C15.2527 17.6613 15.14 17.5466 15.14 17.4017H14.84C14.84 17.7175 15.0923 17.9613 15.4072 17.9613V17.6613ZM15.14 17.4017V15.9935H14.84V17.4017H15.14ZM15.14 15.9935C15.14 15.8485 15.2527 15.7338 15.4072 15.7338V15.4338C15.0923 15.4338 14.84 15.6776 14.84 15.9935H15.14ZM15.4072 15.7338H17.8849V15.4338H15.4072V15.7338ZM1.79333 9.81953H6.04447V9.51954H1.79333V9.81953ZM5.9136 9.59622L5.33983 10.6203L5.60155 10.767L6.17533 9.74285L5.9136 9.59622ZM5.47069 10.5437H1.79333V10.8437H5.47069V10.5437ZM1.79333 10.5437C1.71844 10.5437 1.61644 10.5425 1.51196 10.5767L1.60526 10.8618C1.65726 10.8448 1.71175 10.8437 1.79333 10.8437V10.5437ZM1.70861 10.7193V9.87436H1.40861V10.7193H1.70861ZM1.70861 9.87436C1.70861 9.8867 1.70528 9.88832 1.71013 9.87897C1.71417 9.87117 1.72152 9.86063 1.73215 9.85018C1.75482 9.82794 1.77774 9.81953 1.79333 9.81953V9.51954C1.67853 9.51954 1.58409 9.57514 1.52199 9.6361C1.46458 9.69246 1.40861 9.77987 1.40861 9.87436H1.70861ZM11.2608 2.26735C11.354 2.1027 11.5792 2.03451 11.7365 2.12033L11.8802 1.85696C11.5681 1.68675 11.1673 1.82339 10.9997 2.11959L11.2608 2.26735ZM11.7361 2.12009L12.3881 2.47853L12.5326 2.21564L11.8806 1.8572L11.7361 2.12009ZM12.3288 2.27498L7.73864 10.6472L8.00169 10.7914L12.5919 2.4192L12.3288 2.27498ZM7.87017 10.5693H6.43573V10.8693H7.87017V10.5693ZM6.56713 10.7917L11.2616 2.26582L10.9988 2.12112L6.30434 10.647L6.56713 10.7917ZM13.9719 3.14539L9.85117 10.6471L10.1141 10.7915L14.2348 3.28983L13.9719 3.14539ZM9.98264 10.5693H8.80901V10.8693H9.98264V10.5693ZM8.94025 10.792L13.3479 2.8294L13.0854 2.68411L8.67778 10.6467L8.94025 10.792ZM13.1475 2.88985L14.0342 3.35071L14.1725 3.08451L13.2858 2.62366L13.1475 2.88985ZM18.8682 4.64696L12.2698 1.13933L12.129 1.40423L18.7273 4.91186L18.8682 4.64696ZM12.2698 1.13934C11.5719 0.76825 10.6212 1.05036 10.2424 1.73698L10.5051 1.88191C10.8043 1.33959 11.5749 1.10963 12.1289 1.40422L12.2698 1.13934ZM10.2422 1.73734L6.38227 8.7782L6.64533 8.92241L10.5053 1.88156L10.2422 1.73734ZM6.5138 8.70031H1.8193V9.00031H6.5138V8.70031ZM1.8193 8.70031C1.13923 8.70031 0.6 9.22572 0.6 9.90003H0.9C0.9 9.3966 1.29967 9.00031 1.8193 9.00031V8.70031ZM0.6 9.90003V21.2934H0.9V9.90003H0.6ZM0.6 21.2934C0.6 21.9677 1.13923 22.4931 1.8193 22.4931V22.1931C1.29967 22.1931 0.9 21.7968 0.9 21.2934H0.6ZM1.8193 22.4931H16.8156V22.1931H1.8193V22.4931ZM16.8156 22.4931C17.4957 22.4931 18.0349 21.9677 18.0349 21.2934H17.7349C17.7349 21.7968 17.3353 22.1931 16.8156 22.1931V22.4931ZM18.0349 21.2934V18.6307H17.7349V21.2934H18.0349ZM17.8849 18.7807H18.3283V18.4807H17.8849V18.7807ZM18.3283 18.7807C18.6432 18.7807 18.8956 18.5369 18.8956 18.221H18.5956C18.5956 18.366 18.4828 18.4807 18.3283 18.4807V18.7807ZM18.8956 18.221V15.1743H18.5956V18.221H18.8956ZM18.8956 15.1743C18.8956 14.8584 18.6432 14.6146 18.3283 14.6146V14.9146C18.4828 14.9146 18.5956 15.0293 18.5956 15.1743H18.8956ZM18.3283 14.6146H17.8849V14.9146H18.3283V14.6146ZM18.0349 14.7646V11.7691H17.7349V14.7646H18.0349ZM18.0349 11.7691C18.0349 11.2095 17.6181 10.7153 17.0823 10.5984L17.0184 10.8915C17.4215 10.9794 17.7349 11.3557 17.7349 11.7691H18.0349ZM17.1818 10.8172L19.4769 6.64391L19.214 6.49935L16.9189 10.6727L17.1818 10.8172ZM19.478 6.64184C19.8558 5.92854 19.593 5.04543 18.87 4.64796L18.7255 4.91086C19.3065 5.23027 19.5131 5.93456 19.2129 6.50142L19.478 6.64184Z" fill="#858585"/>
<path fill-rule="evenodd" clip-rule="evenodd" d="M16.7118 6.87887L16.451 7.36533C16.3728 7.49335 16.1902 7.54455 16.0598 7.46774L15.8512 7.33973C15.799 7.31412 15.7468 7.23731 15.7208 7.18611C15.6947 7.1093 15.6947 7.03249 15.7468 6.98128L16.0077 6.49482C16.0598 6.41801 16.1641 6.34121 16.2685 6.34121C16.3206 6.34121 16.3467 6.34121 16.3989 6.36681L16.6075 6.46922C16.7118 6.57163 16.764 6.72525 16.7118 6.87887ZM16.9987 5.7779L16.79 5.67549C16.2684 5.39385 15.5642 5.59868 15.2774 6.11074L15.0166 6.5972C14.8861 6.85323 14.834 7.16047 14.9383 7.4421C15.0166 7.72374 15.2252 7.95416 15.486 8.08218L15.6946 8.18459C15.8511 8.2614 16.0337 8.31261 16.2163 8.31261C16.6335 8.31261 16.9987 8.08218 17.2073 7.74934L17.4681 7.26288C17.7289 6.72522 17.5203 6.05953 16.9987 5.7779Z" fill="#858585"/>
<path d="M16.7118 6.87887L16.844 6.94975L16.8499 6.93883L16.8539 6.9271L16.7118 6.87887ZM16.451 7.36533L16.5792 7.44368L16.5832 7.43621L16.451 7.36533ZM16.0598 7.46774L15.9814 7.59562L15.9837 7.59699L16.0598 7.46774ZM15.8512 7.33973L15.93 7.21131L15.9173 7.20507L15.8512 7.33973ZM15.7208 7.18611L15.5787 7.23434L15.5822 7.24456L15.5871 7.25419L15.7208 7.18611ZM15.7468 6.98128L15.8519 7.08832L15.8682 7.07231L15.879 7.05216L15.7468 6.98128ZM16.0077 6.49482L15.8836 6.41055L15.8792 6.41704L15.8755 6.42395L16.0077 6.49482ZM16.3989 6.36681L16.465 6.23216L16.3989 6.36681ZM16.6075 6.46922L16.7126 6.36218L16.6953 6.34523L16.6736 6.33457L16.6075 6.46922ZM16.79 5.67549L16.7187 5.80758L16.7239 5.81014L16.79 5.67549ZM15.2774 6.11074L15.1465 6.03741L15.1452 6.03986L15.2774 6.11074ZM15.0166 6.5972L14.8843 6.52631L14.8829 6.52912L15.0166 6.5972ZM14.9383 7.4421L15.0833 7.40181L15.079 7.39L14.9383 7.4421ZM15.486 8.08218L15.4199 8.21683H15.4199L15.486 8.08218ZM15.6946 8.18459L15.7607 8.04994L15.6946 8.18459ZM17.2073 7.74934L17.3347 7.82919L17.3395 7.82022L17.2073 7.74934ZM17.4681 7.26288L17.6004 7.33381L17.6031 7.32835L17.4681 7.26288ZM16.5796 6.80799L16.3188 7.29445L16.5832 7.43621L16.844 6.94975L16.5796 6.80799ZM16.323 7.28711C16.285 7.34927 16.1918 7.37139 16.1359 7.3385L15.9837 7.59699C16.1886 7.71771 16.4605 7.63742 16.579 7.44355L16.323 7.28711ZM16.1383 7.33989L15.9296 7.21187L15.7727 7.46758L15.9814 7.5956L16.1383 7.33989ZM15.9173 7.20507C15.9211 7.20693 15.9198 7.20704 15.9139 7.20164C15.9085 7.19664 15.9016 7.18923 15.8938 7.17937C15.8779 7.15929 15.8635 7.13588 15.8544 7.11803L15.5871 7.25419C15.6041 7.28754 15.6289 7.32814 15.6586 7.36567C15.6859 7.40016 15.7288 7.44676 15.7851 7.47438L15.9173 7.20507ZM15.8628 7.13788C15.8542 7.11252 15.8531 7.09595 15.8538 7.08793C15.8541 7.08448 15.8547 7.08385 15.8542 7.08496C15.8536 7.08633 15.8526 7.08766 15.8519 7.08832L15.6418 6.87424C15.5274 6.98649 15.546 7.13802 15.5787 7.23434L15.8628 7.13788ZM15.879 7.05216L16.1399 6.5657L15.8755 6.42395L15.6146 6.91041L15.879 7.05216ZM16.1317 6.57909C16.1458 6.55834 16.1698 6.53423 16.1985 6.51606C16.2277 6.49769 16.2523 6.49121 16.2685 6.49121V6.19121C16.1803 6.19121 16.1006 6.22312 16.0384 6.26236C15.9759 6.3018 15.9216 6.3545 15.8836 6.41055L16.1317 6.57909ZM16.2685 6.49121C16.2974 6.49121 16.3042 6.49158 16.3094 6.49244C16.311 6.4927 16.3164 6.49342 16.3328 6.50146L16.465 6.23216C16.4292 6.2146 16.3954 6.20252 16.3579 6.19637C16.324 6.19083 16.2916 6.19121 16.2685 6.19121V6.49121ZM16.3328 6.50146L16.5414 6.60387L16.6736 6.33457L16.465 6.23216L16.3328 6.50146ZM16.5024 6.57626C16.5721 6.64467 16.6007 6.73968 16.5698 6.83064L16.8539 6.9271C16.9273 6.71082 16.8515 6.4986 16.7126 6.36218L16.5024 6.57626ZM17.0648 5.64325L16.8561 5.54083L16.7239 5.81014L16.9326 5.91255L17.0648 5.64325ZM16.8613 5.5435C16.2679 5.22313 15.4736 5.45354 15.1465 6.03742L15.4082 6.18406C15.6549 5.74382 16.2689 5.56458 16.7188 5.80748L16.8613 5.5435ZM15.1452 6.03986L14.8844 6.52632L15.1487 6.66808L15.4096 6.18162L15.1452 6.03986ZM14.8829 6.52912C14.7392 6.81121 14.6749 7.16282 14.7976 7.49421L15.079 7.39C14.9931 7.15811 15.0331 6.89525 15.1502 6.66528L14.8829 6.52912ZM14.7938 7.48225C14.8848 7.80979 15.1252 8.07219 15.4199 8.21683L15.5521 7.94753C15.3252 7.83614 15.1483 7.63768 15.0828 7.40195L14.7938 7.48225ZM15.4199 8.21683L15.6285 8.31925L15.7607 8.04994L15.5521 7.94753L15.4199 8.21683ZM15.6285 8.31925C15.8015 8.40416 16.0066 8.46261 16.2163 8.46261V8.16261C16.0607 8.16261 15.9007 8.11864 15.7607 8.04994L15.6285 8.31925ZM16.2163 8.46261C16.6906 8.46261 17.1013 8.20085 17.3344 7.82901L17.0802 7.66967C16.896 7.96351 16.5765 8.16261 16.2163 8.16261V8.46261ZM17.3395 7.82022L17.6003 7.33376L17.3359 7.192L17.0751 7.67846L17.3395 7.82022ZM17.6031 7.32835C17.8981 6.72008 17.6638 5.96657 17.0699 5.64591L16.9274 5.90989C17.3767 6.1525 17.5597 6.73035 17.3332 7.19742L17.6031 7.32835Z" fill="#858585"/>
</g>
</svg>
