<svg width="44" height="44" viewBox="0 0 44 44" fill="none" xmlns="http://www.w3.org/2000/svg">
<path fill-rule="evenodd" clip-rule="evenodd" d="M22 44C34.1503 44 44 34.1503 44 22C44 9.84974 34.1503 0 22 0C9.84974 0 0 9.84974 0 22C0 34.1503 9.84974 44 22 44Z" fill="#E7EDF2"/>
<path fill-rule="evenodd" clip-rule="evenodd" d="M31.6 13H12.4C11.08 13 10 14.0688 10 15.375V29.625C10 30.9312 11.08 32 12.4 32H31.6C32.92 32 34 30.9312 34 29.625V15.375C34 14.0688 32.92 13 31.6 13ZM31.6 29.625H12.4V22.5H31.6V29.625ZM31.6 17.75H12.4V15.375H31.6V17.75Z" fill="#061A36"/>
</svg>
