<svg width="26" height="32" viewBox="0 0 26 32" fill="none" xmlns="http://www.w3.org/2000/svg">
<path fill-rule="evenodd" clip-rule="evenodd" d="M5.20013 23.9034C5.20013 24.6338 5.78513 25.2313 6.50013 25.2313H7.80013V29.8789C7.80013 30.9811 8.67113 31.8708 9.75013 31.8708C10.8291 31.8708 11.7001 30.9811 11.7001 29.8789V25.2313H14.3001V29.8789C14.3001 30.9811 15.1711 31.8708 16.2501 31.8708C17.3291 31.8708 18.2001 30.9811 18.2001 29.8789V25.2313H19.5001C20.2151 25.2313 20.8001 24.6338 20.8001 23.9034V10.6246H5.20013V23.9034ZM1.95 10.6246C0.870999 10.6246 0 11.5143 0 12.6164V21.9116C0 23.0138 0.870999 23.9034 1.95 23.9034C3.029 23.9034 3.9 23.0138 3.9 21.9116V12.6164C3.9 11.5143 3.029 10.6246 1.95 10.6246ZM24.0501 10.6246C22.9711 10.6246 22.1001 11.5143 22.1001 12.6164V21.9116C22.1001 23.0138 22.9711 23.9034 24.0501 23.9034C25.1291 23.9034 26.0001 23.0138 26.0001 21.9116V12.6164C26.0001 11.5143 25.1291 10.6246 24.0501 10.6246ZM17.5891 2.86989L19.2856 1.137C19.5391 0.878065 19.5391 0.459781 19.2856 0.200843C19.0321 -0.058095 18.6226 -0.058095 18.3691 0.200843L16.4451 2.15948C15.4051 1.63496 14.2416 1.32955 13.0001 1.32955C11.7521 1.32955 10.5821 1.63496 9.53563 2.16612L7.60513 0.194203C7.35163 -0.0647345 6.94213 -0.0647345 6.68863 0.194203C6.43513 0.453141 6.43513 0.871426 6.68863 1.13036L8.39163 2.86989C6.46113 4.32393 5.20013 6.66101 5.20013 9.29687H20.8001C20.8001 6.65437 19.5326 4.31729 17.5891 2.86989ZM16.2501 6.63923C16.6091 6.63923 16.9001 6.34197 16.9001 5.97528C16.9001 5.6086 16.6091 5.31134 16.2501 5.31134C15.8911 5.31134 15.6001 5.6086 15.6001 5.97528C15.6001 6.34197 15.8911 6.63923 16.2501 6.63923ZM9.75007 6.63923C10.1091 6.63923 10.4001 6.34197 10.4001 5.97528C10.4001 5.6086 10.1091 5.31134 9.75007 5.31134C9.39108 5.31134 9.10007 5.6086 9.10007 5.97528C9.10007 6.34197 9.39108 6.63923 9.75007 6.63923Z" fill="#7F7F7F"/>
</svg>
