<svg width="26" height="32" viewBox="0 0 26 32" fill="none" xmlns="http://www.w3.org/2000/svg">
<path fill-rule="evenodd" clip-rule="evenodd" d="M17.5847 5.05488C18.7367 3.71673 19.5099 1.8573 19.2984 0C17.6453 0.0625105 15.6353 1.06374 14.4524 2.39659C13.3906 3.58429 12.46 5.4755 12.7067 7.29148C14.5526 7.42922 16.4382 6.39091 17.5847 5.05488ZM26 23.4796C25.9604 23.5872 25.3274 25.7396 23.7864 27.9553C22.4593 29.8758 21.0756 31.7899 18.8983 31.8278C16.7639 31.869 16.0763 30.5792 13.6317 30.5792C11.1882 30.5792 10.4247 31.7899 8.40145 31.869C6.29908 31.9502 4.70466 29.7946 3.36046 27.8836C0.615402 23.9743 -1.47628 16.8336 1.33295 12.0183C2.73381 9.62437 5.22864 8.11208 7.94056 8.07095C10.0066 8.0372 11.9507 9.43876 13.2115 9.43876C14.4733 9.43876 16.8355 7.74403 19.324 7.99291C20.3612 8.03931 23.2849 8.40737 25.1648 11.1166C25.0098 11.2136 21.6755 13.1246 21.7118 17.1099C21.7535 21.8746 25.9508 23.4607 26 23.4796Z" fill="#7F7F7F"/>
</svg>
