<svg width="17" height="21" viewBox="0 0 17 21" fill="none" xmlns="http://www.w3.org/2000/svg">
<path fill-rule="evenodd" clip-rule="evenodd" d="M8.33333 20.3126C9.47917 20.3126 10.4167 19.3751 10.4167 18.2292H6.25C6.25 19.3751 7.17708 20.3126 8.33333 20.3126V20.3126Z" fill="#E7EDF2"/>
<path fill-rule="evenodd" clip-rule="evenodd" d="M14.5833 14.0625V8.85417C14.5833 5.65625 12.875 2.97917 9.89583 2.27083V1.5625C9.89583 0.697917 9.19792 0 8.33333 0C7.46875 0 6.77083 0.697917 6.77083 1.5625V2.27083C3.78125 2.97917 2.08333 5.64583 2.08333 8.85417V14.0625L0 16.1458V17.1875H16.6667V16.1458L14.5833 14.0625V14.0625Z" fill="#E7EDF2"/>
<path fill-rule="evenodd" clip-rule="evenodd" d="M8.33333 20.3126C9.47917 20.3126 10.4167 19.3751 10.4167 18.2292H6.25C6.25 19.3751 7.17708 20.3126 8.33333 20.3126V20.3126Z" fill="#E7EDF2"/>
<path fill-rule="evenodd" clip-rule="evenodd" d="M14.5833 14.0625V8.85417C14.5833 5.65625 12.875 2.97917 9.89583 2.27083V1.5625C9.89583 0.697917 9.19792 0 8.33333 0C7.46875 0 6.77083 0.697917 6.77083 1.5625V2.27083C3.78125 2.97917 2.08333 5.64583 2.08333 8.85417V14.0625L0 16.1458V17.1875H16.6667V16.1458L14.5833 14.0625V14.0625Z" fill="#E7EDF2"/>
</svg>
