<svg width="20" height="20" viewBox="0 0 20 20" fill="none" xmlns="http://www.w3.org/2000/svg">
<rect x="0.5" y="0.5" width="19" height="19" stroke="#343434"/>
<mask id="path-2-inside-1" fill="white">
<path fill-rule="evenodd" clip-rule="evenodd" d="M14.8381 5.81592L14.8753 5.85314L15.5452 6.52303L15.5824 6.56024L14.8753 7.26735L8.84631 13.2964L8.1392 14.0035L8.10199 13.9663L7.4321 13.2964L7.39488 13.2591L7.39489 13.2591L5.12469 10.9889L4.41759 10.2818L4.4548 10.2446L5.12469 9.57474L5.16191 9.53752L5.86902 10.2446L8.13921 12.5148L14.131 6.52303L14.8381 5.81592Z"/>
</mask>
<path d="M14.8753 5.85314L14.1682 6.56024L14.8753 5.85314ZM14.8381 5.81592L15.5452 5.10881L14.8381 4.40171L14.131 5.10881L14.8381 5.81592ZM15.5452 6.52303L16.2523 5.81592L15.5452 6.52303ZM15.5824 6.56024L16.2895 7.26735L16.9966 6.56024L16.2895 5.85314L15.5824 6.56024ZM14.8753 7.26735L14.1682 6.56024L14.1682 6.56024L14.8753 7.26735ZM8.84631 13.2964L9.55342 14.0035L8.84631 13.2964ZM8.1392 14.0035L7.4321 14.7106L8.1392 15.4177L8.84631 14.7106L8.1392 14.0035ZM7.39488 13.2591L6.68777 12.552L5.98067 13.2591L6.68777 13.9663L7.39488 13.2591ZM7.39489 13.2591L8.10199 13.9662L8.8091 13.2591L8.10199 12.552L7.39489 13.2591ZM5.12469 10.9889L4.41759 11.6961L5.12469 10.9889ZM4.41759 10.2818L3.71048 9.57474L3.00337 10.2818L3.71048 10.989L4.41759 10.2818ZM4.4548 10.2446L3.7477 9.53752L4.4548 10.2446ZM5.12469 9.57474L5.8318 10.2818L5.12469 9.57474ZM5.16191 9.53752L5.86902 8.83041L5.16191 8.12331L4.4548 8.83041L5.16191 9.53752ZM5.86902 10.2446L5.16191 10.9517L5.86902 10.2446ZM8.13921 12.5148L7.4321 13.2219L8.13921 13.929L8.84632 13.2219L8.13921 12.5148ZM14.131 6.52303L13.4239 5.81592L13.4239 5.81592L14.131 6.52303ZM15.5824 5.14603L15.5452 5.10881L14.131 6.52303L14.1682 6.56024L15.5824 5.14603ZM16.2523 5.81592L15.5824 5.14603L14.1682 6.56024L14.8381 7.23013L16.2523 5.81592ZM16.2895 5.85314L16.2523 5.81592L14.8381 7.23013L14.8753 7.26735L16.2895 5.85314ZM15.5824 7.97446L16.2895 7.26735L14.8753 5.85314L14.1682 6.56024L15.5824 7.97446ZM9.55342 14.0035L15.5824 7.97446L14.1682 6.56024L8.1392 12.5893L9.55342 14.0035ZM8.84631 14.7106L9.55342 14.0035L8.1392 12.5893L7.4321 13.2964L8.84631 14.7106ZM7.39488 14.6734L7.4321 14.7106L8.84631 13.2964L8.80909 13.2591L7.39488 14.6734ZM6.72499 14.0035L7.39488 14.6734L8.80909 13.2591L8.1392 12.5893L6.72499 14.0035ZM6.68777 13.9663L6.72499 14.0035L8.1392 12.5893L8.10199 12.552L6.68777 13.9663ZM6.68778 12.552L6.68777 12.552L8.10199 13.9663L8.10199 13.9662L6.68778 12.552ZM4.41759 11.6961L6.68778 13.9662L8.10199 12.552L5.8318 10.2818L4.41759 11.6961ZM3.71048 10.989L4.41759 11.6961L5.8318 10.2818L5.12469 9.57474L3.71048 10.989ZM3.7477 9.53752L3.71048 9.57474L5.12469 10.989L5.16191 10.9517L3.7477 9.53752ZM4.41759 8.86763L3.7477 9.53752L5.16191 10.9517L5.8318 10.2818L4.41759 8.86763ZM4.4548 8.83041L4.41759 8.86763L5.8318 10.2818L5.86902 10.2446L4.4548 8.83041ZM6.57612 9.53752L5.86902 8.83041L4.4548 10.2446L5.16191 10.9517L6.57612 9.53752ZM8.84632 11.8077L6.57612 9.53752L5.16191 10.9517L7.4321 13.2219L8.84632 11.8077ZM13.4239 5.81592L7.4321 11.8077L8.84632 13.2219L14.8381 7.23013L13.4239 5.81592ZM14.131 5.10881L13.4239 5.81592L14.8381 7.23013L15.5452 6.52303L14.131 5.10881Z" fill="#343434" mask="url(#path-2-inside-1)"/>
</svg>
