<svg width="36" height="34" viewBox="0 0 36 34" fill="none" xmlns="http://www.w3.org/2000/svg">
<mask id="mask0" mask-type="alpha" maskUnits="userSpaceOnUse" x="0" y="0" width="36" height="34">
<path fill-rule="evenodd" clip-rule="evenodd" d="M18.1835 0.620117C8.56429 0.620117 0.76709 8.03346 0.76709 17.1785C0.76709 26.3241 8.56429 33.7374 18.1835 33.7374C27.802 33.7374 35.5992 26.3241 35.5992 17.1785C35.5992 8.03346 27.802 0.620117 18.1835 0.620117Z" fill="white"/>
</mask>
<g mask="url(#mask0)">
<path fill-rule="evenodd" clip-rule="evenodd" d="M18.1835 0.620117C8.56429 0.620117 0.76709 8.03346 0.76709 17.1785C0.76709 26.3241 8.56429 33.7374 18.1835 33.7374C27.802 33.7374 35.5992 26.3241 35.5992 17.1785C35.5992 8.03346 27.802 0.620117 18.1835 0.620117Z" fill="url(#paint0_linear)"/>
</g>
<path fill-rule="evenodd" clip-rule="evenodd" d="M26.1993 15.2747V25.4846H22.115V24.8453C21.3486 25.1385 20.5306 25.3366 19.6792 25.4268V27.5374H16.9659V25.3503C12.5791 24.6281 9.24463 21.0251 9.24463 16.6872C9.24463 12.3492 12.5791 8.74522 16.9659 8.02206V5.8374H19.6792V7.94901C21.6813 8.16865 23.4902 8.98251 24.9007 10.2003L24.5295 10.5921L22.9278 12.283L22.4019 12.8233C21.6558 12.1688 20.7185 11.7045 19.6792 11.5108C19.3267 11.4456 18.9623 11.4113 18.5884 11.4113C18.0235 11.4113 17.4799 11.4893 16.9659 11.6359C16.1058 11.8805 15.3331 12.3144 14.702 12.887C14.5999 12.9699 14.4999 13.0586 14.4062 13.1528C13.9621 13.5921 13.6215 14.1147 13.3841 14.7197C13.3685 14.7584 13.355 14.7952 13.3409 14.8344C13.3399 14.8364 13.3383 14.8398 13.3367 14.8437C13.1097 15.4178 12.9847 16.039 12.9847 16.6872C12.9847 17.2961 13.0946 17.882 13.2977 18.4262C13.2987 18.4301 13.3003 18.4345 13.3013 18.4384C13.3268 18.5149 13.355 18.5909 13.3841 18.6654C13.6215 19.2635 13.9621 19.7818 14.4062 20.222C14.5041 20.3201 14.6072 20.4123 14.7155 20.5005C14.7181 20.5015 14.7207 20.5039 14.7207 20.5039C14.9352 20.6976 15.1649 20.8726 15.407 21.03C15.4184 21.0374 15.4299 21.0447 15.4414 21.0516C15.9048 21.3497 16.4161 21.5825 16.9659 21.7375C17.42 21.8684 17.8995 21.9429 18.3942 21.9596C18.4671 21.962 18.5395 21.9635 18.6139 21.9635H18.6774C19.0206 21.9596 19.3543 21.9272 19.6792 21.8659C20.5436 21.711 21.3371 21.3663 22.0104 20.8824C22.0281 20.8751 22.0437 20.8667 22.0588 20.8599V18.3732H18.6238L19.6792 17.4858L20.2093 17.0406L22.3233 15.2747H26.1993Z" fill="white"/>
<defs>
<linearGradient id="paint0_linear" x1="24.559" y1="-5.44473" x2="-4.83102" y2="12.4023" gradientUnits="userSpaceOnUse">
<stop stop-color="#F6BD00"/>
<stop offset="1" stop-color="#F4A800"/>
</linearGradient>
</defs>
</svg>
