<svg width="26" height="26" viewBox="0 0 26 26" fill="none" xmlns="http://www.w3.org/2000/svg">
<path d="M25.8348 12.4944C25.6025 12.1766 20.0682 4.71436 12.9999 4.71436C5.93157 4.71436 0.397009 12.1766 0.164989 12.4941C-0.0549962 12.7955 -0.0549962 13.2043 0.164989 13.5058C0.397009 13.8235 5.93157 21.2858 12.9999 21.2858C20.0682 21.2858 25.6025 13.8235 25.8348 13.506C26.055 13.2046 26.055 12.7955 25.8348 12.4944ZM12.9999 19.5715C7.79331 19.5715 3.28388 14.6186 1.94899 12.9995C3.28215 11.3789 7.78214 6.42863 12.9999 6.42863C18.2062 6.42863 22.7153 11.3806 24.0508 13.0007C22.7176 14.6212 18.2176 19.5715 12.9999 19.5715Z" fill="black"/>
<path d="M12.9992 7.85718C10.1635 7.85718 7.85632 10.1643 7.85632 13.0001C7.85632 15.8358 10.1635 18.1429 12.9992 18.1429C15.8349 18.1429 18.1421 15.8358 18.1421 13.0001C18.1421 10.1643 15.8349 7.85718 12.9992 7.85718ZM12.9992 16.4286C11.1086 16.4286 9.57065 14.8906 9.57065 13.0001C9.57065 11.1095 11.1087 9.5715 12.9992 9.5715C14.8897 9.5715 16.4277 11.1095 16.4277 13.0001C16.4277 14.8906 14.8898 16.4286 12.9992 16.4286Z" fill="black"/>
</svg>
