<svg width="26" height="26" viewBox="0 0 26 26" fill="none" xmlns="http://www.w3.org/2000/svg">
<path d="M25.8348 12.4522C25.6025 12.1345 20.0682 4.67285 12.9999 4.67285C5.93157 4.67285 0.397009 12.1345 0.164989 12.4519C-0.0549962 12.7533 -0.0549962 13.1621 0.164989 13.4635C0.397009 13.7812 5.93157 21.2429 12.9999 21.2429C20.0682 21.2429 25.6025 13.7812 25.8348 13.4638C26.055 13.1624 26.055 12.7533 25.8348 12.4522ZM12.9999 19.5287C7.79331 19.5287 3.28388 14.5763 1.94899 12.9573C3.28215 11.3368 7.78214 6.38698 12.9999 6.38698C18.2062 6.38698 22.7153 11.3385 24.0508 12.9584C22.7176 14.5788 18.2176 19.5287 12.9999 19.5287Z" fill="black"/>
<path d="M12.9992 7.82275C10.1635 7.82275 7.85632 10.1309 7.85632 12.9678C7.85632 15.8047 10.1635 18.1128 12.9992 18.1128C15.8349 18.1128 18.1421 15.8047 18.1421 12.9678C18.1421 10.1309 15.8349 7.82275 12.9992 7.82275ZM12.9992 16.3977C11.1086 16.3977 9.57065 14.8591 9.57065 12.9678C9.57065 11.0764 11.1087 9.53779 12.9992 9.53779C14.8897 9.53779 16.4277 11.0764 16.4277 12.9678C16.4277 14.8591 14.8898 16.3977 12.9992 16.3977Z" fill="black"/>
<line y1="-0.75" x2="32.0446" y2="-0.75" transform="matrix(-0.624131 0.78132 -0.803557 -0.595228 23 0)" stroke="black" stroke-width="1.5"/>
</svg>
