<svg width="27" height="27" viewBox="0 0 27 27" fill="none" xmlns="http://www.w3.org/2000/svg">
<mask id="mask0" mask-type="alpha" maskUnits="userSpaceOnUse" x="0" y="0" width="27" height="27">
<path fill-rule="evenodd" clip-rule="evenodd" d="M13.3738 0C5.98739 0 0 5.98739 0 13.3733V13.3733C0 20.7598 5.98739 26.7472 13.3738 26.7472V26.7472C20.7598 26.7472 26.7472 20.7598 26.7472 13.3733V13.3733C26.7472 5.98739 20.7598 0 13.3738 0Z" fill="white"/>
</mask>
<g mask="url(#mask0)">
<path fill-rule="evenodd" clip-rule="evenodd" d="M13.3738 0C5.98739 0 0 5.98739 0 13.3733V13.3733C0 20.7598 5.98739 26.7472 13.3738 26.7472V26.7472C20.7598 26.7472 26.7472 20.7598 26.7472 13.3733V13.3733C26.7472 5.98739 20.7598 0 13.3738 0Z" fill="#2E4267"/>
<path fill-rule="evenodd" clip-rule="evenodd" d="M13.3738 0C5.98739 0 0 5.98739 0 13.3733V13.3733C0 20.7598 5.98739 26.7472 13.3738 26.7472V26.7472C20.7598 26.7472 26.7472 20.7598 26.7472 13.3733V13.3733C26.7472 5.98739 20.7598 0 13.3738 0Z" fill="#2E4267"/>
</g>
<path fill-rule="evenodd" clip-rule="evenodd" d="M19.5291 11.8356V20.0817H16.3928V19.5654C15.8043 19.8022 15.1761 19.9621 14.5224 20.035V21.7396H12.4389V19.9732C9.07029 19.3899 6.50977 16.48 6.50977 12.9764C6.50977 9.47289 9.07029 6.56212 12.4389 5.97806V4.21362H14.5224V5.91906C16.0597 6.09646 17.4488 6.75377 18.5319 7.73736L18.2468 8.05374L17.0169 9.41944L16.6131 9.85579C16.0402 9.32717 15.3205 8.95219 14.5224 8.79578C14.2517 8.74312 13.9718 8.7154 13.6847 8.7154C13.2509 8.7154 12.8335 8.77836 12.4389 8.89676C11.7783 9.09434 11.185 9.44478 10.7004 9.90727C10.622 9.97419 10.5453 10.0459 10.4733 10.1219C10.1322 10.4767 9.87075 10.8988 9.68843 11.3874C9.67643 11.4187 9.66604 11.4484 9.65524 11.4801C9.65444 11.4816 9.65324 11.4844 9.65204 11.4876C9.47772 11.9513 9.38176 12.453 9.38176 12.9764C9.38176 13.4682 9.46612 13.9414 9.62206 14.3809C9.62286 14.3841 9.62405 14.3877 9.62485 14.3908C9.64445 14.4526 9.66604 14.514 9.68843 14.5742C9.87075 15.0572 10.1322 15.4758 10.4733 15.8314C10.5485 15.9106 10.6276 15.985 10.7108 16.0563C10.7128 16.0571 10.7148 16.0591 10.7148 16.0591C10.8795 16.2155 11.0559 16.3568 11.2418 16.4839C11.2506 16.4899 11.2594 16.4958 11.2682 16.5014C11.624 16.7421 12.0166 16.9302 12.4389 17.0553C12.7875 17.161 13.1558 17.2212 13.5356 17.2347C13.5916 17.2367 13.6472 17.2379 13.7043 17.2379H13.7531C14.0166 17.2347 14.2729 17.2086 14.5224 17.1591C15.1861 17.0339 15.7955 16.7556 16.3124 16.3647C16.326 16.3588 16.338 16.3521 16.3496 16.3465V14.3382H13.7119L14.5224 13.6215L14.9294 13.2619L16.5527 11.8356H19.5291Z" fill="white"/>
</svg>
