<svg width="80" height="80" viewBox="0 0 80 80" fill="none" xmlns="http://www.w3.org/2000/svg">
<path fill-rule="evenodd" clip-rule="evenodd" d="M15.1855 20H64.814C67.6736 20 70 22.3083 70 25.1458V54.8192C70 57.6567 67.6736 59.965 64.814 59.965H15.1855C12.3264 59.965 10 57.6567 10 54.8192V25.1458C10 22.3083 12.3264 20 15.1855 20ZM64.814 58.1968C66.6908 58.1968 68.2179 56.6815 68.2179 54.8192V25.1458C68.2179 23.2835 66.6908 21.7683 64.814 21.7683H15.1855C13.3092 21.7683 11.7821 23.2835 11.7821 25.1458V54.8192C11.7821 56.6815 13.3092 58.1968 15.1855 58.1968H64.814Z" fill="#343434"/>
<path fill-rule="evenodd" clip-rule="evenodd" d="M36.6737 27.0732H16.0006C15.5085 27.0732 15.1094 27.4689 15.1094 27.9576V30.0792C15.1094 30.5675 15.5085 30.9631 16.0006 30.9631C16.4927 30.9631 16.8919 30.5675 16.8919 30.0792V28.8415H35.7829V50.4158H16.8919V33.6162C16.8919 33.1279 16.4927 32.7319 16.0006 32.7319C15.5085 32.7319 15.1094 33.1279 15.1094 33.6162V51.2997C15.1094 51.788 15.5085 52.1841 16.0006 52.1841H36.6737C37.1658 52.1841 37.565 51.788 37.565 51.2997V27.9576C37.565 27.4689 37.1658 27.0732 36.6737 27.0732Z" fill="#343434"/>
<path fill-rule="evenodd" clip-rule="evenodd" d="M64.2381 29.124H41.9015C41.4094 29.124 41.0103 29.5201 41.0103 30.0084C41.0103 30.4967 41.4094 30.8923 41.9015 30.8923H64.2381C64.7302 30.8923 65.1289 30.4967 65.1289 30.0084C65.1289 29.5201 64.7302 29.124 64.2381 29.124Z" fill="#343434"/>
<path fill-rule="evenodd" clip-rule="evenodd" d="M64.2383 35.5381H59.2482C58.7561 35.5381 58.3574 35.9337 58.3574 36.422C58.3574 36.9103 58.7561 37.3063 59.2482 37.3063H64.2383C64.7304 37.3063 65.1291 36.9103 65.1291 36.422C65.1291 35.9337 64.7304 35.5381 64.2383 35.5381Z" fill="#343434"/>
<path fill-rule="evenodd" clip-rule="evenodd" d="M41.9015 37.3063H55.6834C56.1755 37.3063 56.5747 36.9103 56.5747 36.422C56.5747 35.9337 56.1755 35.5381 55.6834 35.5381H41.9015C41.4094 35.5381 41.0103 35.9337 41.0103 36.422C41.0103 36.9103 41.4094 37.3063 41.9015 37.3063Z" fill="#343434"/>
<path fill-rule="evenodd" clip-rule="evenodd" d="M64.2381 41.9517H41.9015C41.4094 41.9517 41.0103 42.3473 41.0103 42.8356C41.0103 43.3238 41.4094 43.7199 41.9015 43.7199H64.2381C64.7302 43.7199 65.1289 43.3238 65.1289 42.8356C65.1289 42.3473 64.7302 41.9517 64.2381 41.9517Z" fill="#343434"/>
<path fill-rule="evenodd" clip-rule="evenodd" d="M54.0204 48.3657H41.9015C41.4094 48.3657 41.0103 48.7613 41.0103 49.2496C41.0103 49.7379 41.4094 50.134 41.9015 50.134H54.0204C54.5125 50.134 54.9112 49.7379 54.9112 49.2496C54.9112 48.7613 54.5125 48.3657 54.0204 48.3657V48.3657Z" fill="#343434"/>
<path fill-rule="evenodd" clip-rule="evenodd" d="M20.9904 49.3544C20.4983 49.3544 20.0991 48.9588 20.0991 48.4705C20.0991 46.2212 21.3149 44.249 23.1281 43.1653C21.3149 42.0815 20.0991 40.1093 20.0991 37.86C20.0991 34.4475 22.8974 31.6709 26.3371 31.6709C29.7762 31.6709 32.5746 34.4475 32.5746 37.86C32.5746 40.1093 31.3592 42.0815 29.546 43.1653C31.3592 44.249 32.5746 46.2212 32.5746 48.4705C32.5746 48.9588 32.1754 49.3544 31.6833 49.3544C31.1912 49.3544 30.7925 48.9588 30.7925 48.4705C30.7925 46.0327 28.7939 44.0496 26.3371 44.0496C23.8802 44.0496 21.8817 46.0327 21.8817 48.4705C21.8817 48.9588 21.4825 49.3544 20.9904 49.3544ZM26.3371 33.4392C23.8802 33.4392 21.8817 35.4223 21.8817 37.86C21.8817 40.2978 23.8802 42.2809 26.3371 42.2809C28.7939 42.2809 30.7925 40.2978 30.7925 37.86C30.7925 35.4223 28.7939 33.4392 26.3371 33.4392Z" fill="#343434"/>
</svg>
