<svg width="26" height="26" viewBox="0 0 26 26" fill="none" xmlns="http://www.w3.org/2000/svg">
<path fill-rule="evenodd" clip-rule="evenodd" d="M13 0C9.46941 0 9.0267 0.014965 7.64012 0.078231C6.25642 0.141342 5.3114 0.361122 4.48451 0.682509C3.62964 1.01468 2.90466 1.45919 2.1819 2.1819C1.45919 2.90466 1.01468 3.62964 0.682509 4.48451C0.361122 5.3114 0.141342 6.25642 0.078231 7.64012C0.014965 9.0267 0 9.46941 0 13C0 16.5306 0.014965 16.9733 0.078231 18.3599C0.141342 19.7436 0.361122 20.6886 0.682509 21.5155C1.01468 22.3704 1.45919 23.0953 2.1819 23.8181C2.90466 24.5408 3.62964 24.9853 4.48451 25.3175C5.3114 25.6389 6.25642 25.8587 7.64012 25.9218C9.0267 25.985 9.46941 26 13 26C16.5306 26 16.9733 25.985 18.3599 25.9218C19.7436 25.8587 20.6886 25.6389 21.5155 25.3175C22.3704 24.9853 23.0953 24.5408 23.8181 23.8181C24.5408 23.0953 24.9853 22.3704 25.3175 21.5155C25.6389 20.6886 25.8587 19.7436 25.9218 18.3599C25.985 16.9733 26 16.5306 26 13C26 9.46941 25.985 9.0267 25.9218 7.64012C25.8587 6.25642 25.6389 5.3114 25.3175 4.48451C24.9853 3.62964 24.5408 2.90466 23.8181 2.1819C23.0953 1.45919 22.3704 1.01468 21.5155 0.682509C20.6886 0.361122 19.7436 0.141342 18.3599 0.078231C16.9733 0.014965 16.5306 0 13 0ZM13 2.34229C16.4711 2.34229 16.8823 2.35555 18.2531 2.41809C19.5205 2.47589 20.2089 2.68767 20.667 2.8657C21.2738 3.10153 21.7068 3.38323 22.1617 3.83817C22.6167 4.29306 22.8984 4.72611 23.1342 5.33292C23.3122 5.791 23.524 6.47934 23.5818 7.74683C23.6443 9.11763 23.6576 9.52881 23.6576 13C23.6576 16.4711 23.6443 16.8823 23.5818 18.2531C23.524 19.5205 23.3122 20.2089 23.1342 20.667C22.8984 21.2738 22.6167 21.7068 22.1617 22.1617C21.7068 22.6167 21.2738 22.8984 20.667 23.1342C20.2089 23.3122 19.5205 23.524 18.2531 23.5818C16.8825 23.6443 16.4713 23.6576 13 23.6576C9.52855 23.6576 9.11747 23.6443 7.74683 23.5818C6.47934 23.524 5.791 23.3122 5.33292 23.1342C4.72611 22.8984 4.29306 22.6167 3.83817 22.1617C3.38328 21.7068 3.10153 21.2738 2.8657 20.667C2.68767 20.2089 2.47589 19.5205 2.41809 18.2531C2.35555 16.8823 2.34229 16.4711 2.34229 13C2.34229 9.52881 2.35555 9.11763 2.41809 7.74683C2.47589 6.47934 2.68767 5.791 2.8657 5.33292C3.10153 4.72611 3.38323 4.29306 3.83817 3.83817C4.29306 3.38323 4.72611 3.10153 5.33292 2.8657C5.791 2.68767 6.47934 2.47589 7.74683 2.41809C9.11763 2.35555 9.52881 2.34229 13 2.34229ZM6.32417 13.0002C6.32417 9.31333 9.31295 6.32455 12.9999 6.32455C16.6867 6.32455 19.6755 9.31333 19.6755 13.0002C19.6755 16.6871 16.6867 19.6759 12.9999 19.6759C9.31295 19.6759 6.32417 16.6871 6.32417 13.0002ZM12.9998 17.3338C10.6065 17.3338 8.66646 15.3937 8.66646 13.0004C8.66646 10.6072 10.6065 8.66709 12.9998 8.66709C15.393 8.66709 17.3331 10.6072 17.3331 13.0004C17.3331 15.3937 15.393 17.3338 12.9998 17.3338ZM19.9394 7.62049C20.8009 7.62049 21.4994 6.92209 21.4994 6.06052C21.4994 5.19894 20.8009 4.50049 19.9394 4.50049C19.0778 4.50049 18.3794 5.19894 18.3794 6.06052C18.3794 6.92209 19.0778 7.62049 19.9394 7.62049Z" fill="#6F8A97"/>
</svg>
