<svg width="80" height="80" viewBox="0 0 80 80" fill="none" xmlns="http://www.w3.org/2000/svg">
<path fill-rule="evenodd" clip-rule="evenodd" d="M53.0469 18.7812H61.0156C63.2126 18.7812 65 20.5686 65 22.7656V48.2656C65 50.4626 63.2126 52.25 61.0156 52.25H53.8438V65H52.25V47.4688C52.25 46.1507 51.1774 45.0781 49.8594 45.0781H39.5494C39.9431 48.2178 42.6301 50.6562 45.875 50.6562H47.4688V52.25H45.875C45.6057 52.25 45.3403 52.2357 45.0781 52.2094V52.25H29.1406V65H27.5469V52.25H17.9844C15.7874 52.25 14 50.4626 14 48.2656V22.7656C14 20.5686 15.7874 18.7812 17.9844 18.7812H25.9531V17.9844C25.9531 15.7874 27.7405 14 29.9375 14C31.2452 14 32.3983 14.6423 33.125 15.6185C33.8517 14.6423 35.0048 14 36.3125 14C37.6202 14 38.7733 14.6423 39.5 15.6185C40.2267 14.6423 41.3798 14 42.6875 14C43.9952 14 45.1483 14.6423 45.875 15.6185C46.6017 14.6423 47.7548 14 49.0625 14C51.2595 14 53.0469 15.7874 53.0469 17.9844V18.7812ZM49.0625 15.5938C47.7445 15.5938 46.6719 16.6663 46.6719 17.9844V21.1719C46.6719 22.4899 47.7445 23.5625 49.0625 23.5625C50.3805 23.5625 51.4531 22.4899 51.4531 21.1719V17.9844C51.4531 16.6663 50.3805 15.5938 49.0625 15.5938ZM40.2969 17.9844C40.2969 16.6663 41.3695 15.5938 42.6875 15.5938C44.0055 15.5938 45.0781 16.6663 45.0781 17.9844V21.1719C45.0781 22.4899 44.0055 23.5625 42.6875 23.5625C41.3695 23.5625 40.2969 22.4899 40.2969 21.1719V17.9844ZM36.3125 15.5938C34.9945 15.5938 33.9219 16.6663 33.9219 17.9844V21.1719C33.9219 22.4899 34.9945 23.5625 36.3125 23.5625C37.6305 23.5625 38.7031 22.4899 38.7031 21.1719V17.9844C38.7031 16.6663 37.6305 15.5938 36.3125 15.5938ZM27.5469 17.9844C27.5469 16.6663 28.6195 15.5938 29.9375 15.5938C31.2555 15.5938 32.3281 16.6663 32.3281 17.9844V21.1719C32.3281 22.4899 31.2555 23.5625 29.9375 23.5625C28.6195 23.5625 27.5469 22.4899 27.5469 21.1719V17.9844ZM61.0156 50.6562C62.3337 50.6562 63.4062 49.5837 63.4062 48.2656V22.7656C63.4062 21.4476 62.3337 20.375 61.0156 20.375H53.0469V21.1719C53.0469 23.3689 51.2595 25.1562 49.0625 25.1562C47.7548 25.1562 46.6017 24.514 45.875 23.5378C45.1483 24.514 43.9952 25.1562 42.6875 25.1562C41.3798 25.1562 40.2267 24.514 39.5 23.5378C38.7733 24.514 37.6202 25.1562 36.3125 25.1562C35.0048 25.1562 33.8517 24.514 33.125 23.5378C32.3983 24.514 31.2452 25.1562 29.9375 25.1562C27.7405 25.1562 25.9531 23.3689 25.9531 21.1719V20.375H17.9844C16.6663 20.375 15.5938 21.4476 15.5938 22.7656V48.2656C15.5938 49.5837 16.6663 50.6562 17.9844 50.6562H41.1145C39.1717 49.202 37.9062 46.8894 37.9062 44.2812C37.9062 43.8406 38.2633 43.4844 38.7031 43.4844H49.8594C52.0564 43.4844 53.8438 45.2718 53.8438 47.4688V50.6562H61.0156Z" fill="#343434"/>
<path fill-rule="evenodd" clip-rule="evenodd" d="M18.7812 27.5469H33.125C33.5649 27.5469 33.9219 27.9031 33.9219 28.3438V43.4844C33.9219 43.925 33.5649 44.2812 33.125 44.2812H18.7812C18.3414 44.2812 17.9844 43.925 17.9844 43.4844V28.3438C17.9844 27.9031 18.3414 27.5469 18.7812 27.5469ZM24.2685 37.4138C22.1823 38.1668 20.7001 40.2323 20.4308 42.6875H31.4747C31.2053 40.2323 29.7239 38.1668 27.6369 37.4138C27.4114 37.5556 27.166 37.6624 26.907 37.7445L26.8753 37.7548C26.8462 37.7643 26.8173 37.7738 26.7875 37.7819C26.6639 37.8162 26.538 37.8417 26.4089 37.8608C26.3955 37.8628 26.3823 37.8638 26.3691 37.8649C26.3604 37.8656 26.3516 37.8663 26.3428 37.8672C26.3123 37.871 26.282 37.8751 26.2516 37.8793L26.2514 37.8793C26.1531 37.8928 26.0547 37.9062 25.9531 37.9062C25.8515 37.9062 25.7531 37.8928 25.6548 37.8793L25.6547 37.8793C25.6243 37.8751 25.5939 37.871 25.5635 37.8672C25.5546 37.8663 25.5459 37.8656 25.5372 37.8649H25.5372C25.5239 37.8638 25.5108 37.8628 25.4973 37.8608C25.3682 37.8417 25.2431 37.8154 25.1188 37.7819C25.089 37.7738 25.06 37.7643 25.031 37.7548L24.9993 37.7445C24.7403 37.6624 24.494 37.5556 24.2685 37.4138ZM24.3594 34.7188V33.9219C24.3594 33.0429 25.0742 32.3281 25.9531 32.3281C26.8321 32.3281 27.5469 33.0429 27.5469 33.9219V34.7188C27.5469 35.1945 27.3333 35.6168 27.0018 35.9093C26.9986 35.9117 26.995 35.9139 26.9913 35.9161L26.9913 35.9161C26.9867 35.9188 26.9819 35.9217 26.9779 35.9252C26.7699 36.1013 26.4233 36.3125 25.9531 36.3125C25.483 36.3125 25.1363 36.1013 24.9283 35.9252C24.9241 35.9215 24.9193 35.9188 24.9145 35.9161C24.9111 35.9143 24.9077 35.9124 24.9044 35.9101C24.5729 35.6168 24.3594 35.1945 24.3594 34.7188ZM28.7765 36.1675C30.3312 36.9046 31.5751 38.217 32.3281 39.8427V29.1406H19.5781V39.8427C20.3312 38.2178 21.5751 36.9046 23.1298 36.1675C22.9051 35.7308 22.7656 35.2431 22.7656 34.7188V33.9219C22.7656 32.164 24.1952 30.7344 25.9531 30.7344C27.711 30.7344 29.1406 32.164 29.1406 33.9219V34.7188C29.1406 35.2431 29.0012 35.7308 28.7765 36.1675Z" fill="#343434"/>
<rect x="19.5781" y="45.875" width="7.17188" height="1.59375" fill="#343434"/>
<rect x="28.3438" y="45.875" width="3.1875" height="1.59375" fill="#343434"/>
<rect x="37.1094" y="27.5469" width="8.76562" height="1.59375" fill="#343434"/>
<rect x="48.2656" y="27.5469" width="8.76562" height="1.59375" fill="#343434"/>
<rect x="37.1094" y="31.5312" width="3.98438" height="1.59375" fill="#343434"/>
<rect x="43.4844" y="31.5312" width="3.1875" height="1.59375" fill="#343434"/>
<rect x="37.1094" y="35.5156" width="3.98438" height="1.59375" fill="#343434"/>
<rect x="37.1094" y="39.5" width="1.59375" height="1.59375" fill="#343434"/>
<rect x="40.2969" y="39.5" width="1.59375" height="1.59375" fill="#343434"/>
<rect x="43.4844" y="39.5" width="1.59375" height="1.59375" fill="#343434"/>
<rect x="46.6719" y="39.5" width="7.17188" height="1.59375" fill="#343434"/>
<rect x="55.4375" y="39.5" width="4.78125" height="1.59375" fill="#343434"/>
<path fill-rule="evenodd" clip-rule="evenodd" d="M54.6406 31.5312H60.2188C60.6586 31.5312 61.0156 31.8875 61.0156 32.3281V36.3125C61.0156 36.7532 60.6586 37.1094 60.2188 37.1094H54.6406C54.2007 37.1094 53.8438 36.7532 53.8438 36.3125V32.3281C53.8438 31.8875 54.2007 31.5312 54.6406 31.5312ZM55.4375 35.5156H59.4219V33.125H55.4375V35.5156Z" fill="#343434"/>
</svg>
