<svg width="112" height="28" viewBox="0 0 112 28" fill="none" xmlns="http://www.w3.org/2000/svg">
<mask id="mask0" mask-type="alpha" maskUnits="userSpaceOnUse" x="0" y="0" width="27" height="28">
<path fill-rule="evenodd" clip-rule="evenodd" d="M13.3738 0.620117C5.98739 0.620117 0 6.6075 0 13.9935C0 21.3799 5.98739 27.3673 13.3738 27.3673C20.7598 27.3673 26.7472 21.3799 26.7472 13.9935C26.7472 6.6075 20.7598 0.620117 13.3738 0.620117Z" fill="white"/>
</mask>
<g mask="url(#mask0)">
<path fill-rule="evenodd" clip-rule="evenodd" d="M13.3738 0.620117C5.98739 0.620117 0 6.6075 0 13.9935C0 21.3799 5.98739 27.3673 13.3738 27.3673C20.7598 27.3673 26.7472 21.3799 26.7472 13.9935C26.7472 6.6075 20.7598 0.620117 13.3738 0.620117Z" fill="url(#paint0_linear)"/>
</g>
<path fill-rule="evenodd" clip-rule="evenodd" d="M19.529 12.456V20.7021H16.3927V20.1857C15.8042 20.4225 15.1761 20.5825 14.5223 20.6553V22.36H12.4388V20.5936C9.07023 20.0103 6.5097 17.1003 6.5097 13.5968C6.5097 10.0933 9.07023 7.18248 12.4388 6.59842V4.83398H14.5223V6.53943C16.0597 6.71682 17.4487 7.37413 18.5318 8.35772L18.2468 8.6741L17.0169 10.0398L16.6131 10.4762C16.0401 9.94754 15.3204 9.57255 14.5223 9.41614C14.2516 9.36348 13.9718 9.33576 13.6847 9.33576C13.2509 9.33576 12.8334 9.39872 12.4388 9.51712C11.7783 9.71471 11.1849 10.0651 10.7003 10.5276C10.622 10.5945 10.5452 10.6662 10.4732 10.7422C10.1322 11.097 9.87069 11.5191 9.68837 12.0078C9.67637 12.039 9.66598 12.0687 9.65518 12.1004C9.65438 12.102 9.65318 12.1048 9.65198 12.1079C9.47766 12.5716 9.3817 13.0733 9.3817 13.5968C9.3817 14.0886 9.46606 14.5618 9.62199 15.0013C9.62279 15.0045 9.62399 15.008 9.62479 15.0112C9.64439 15.073 9.66598 15.1343 9.68837 15.1945C9.87069 15.6776 10.1322 16.0962 10.4732 16.4517C10.5484 16.5309 10.6276 16.6054 10.7107 16.6766C10.7127 16.6774 10.7147 16.6794 10.7147 16.6794C10.8795 16.8358 11.0558 16.9772 11.2417 17.1043C11.2505 17.1102 11.2593 17.1162 11.2681 17.1217C11.624 17.3625 12.0166 17.5505 12.4388 17.6757C12.7875 17.7814 13.1557 17.8416 13.5355 17.855C13.5915 17.857 13.6471 17.8582 13.7043 17.8582H13.7531C14.0165 17.855 14.2728 17.8289 14.5223 17.7794C15.1861 17.6543 15.7954 17.3759 16.3124 16.9851C16.326 16.9792 16.338 16.9724 16.3496 16.9669V14.9585H13.7119L14.5223 14.2418L14.9294 13.8823L16.5527 12.456H19.529Z" fill="white"/>
<path d="M45.2271 14.4128C44.9846 14.4384 44.8006 14.479 44.6751 14.5345C44.5539 14.5858 44.4702 14.6776 44.4242 14.81C44.3782 14.9381 44.3552 15.1388 44.3552 15.4121V17.4491C43.7489 17.4491 43.0923 17.5302 42.3856 17.6925C41.8754 17.8078 41.4928 17.8868 41.2377 17.9295C40.9826 17.9765 40.6815 18 40.3344 18C39.4144 18 38.6262 17.7801 37.9696 17.3402C37.3131 16.9004 36.8196 16.3345 36.4893 15.6427C36.1631 14.9509 36 14.2399 36 13.5096C36 12.6726 36.1945 11.9103 36.5834 11.2228C36.9723 10.531 37.4992 9.98861 38.1641 9.59573C38.829 9.19858 39.5566 9 40.347 9C41.3088 9 42.1849 9.3395 42.9752 10.0185C43.0714 9.83488 43.1488 9.58292 43.2073 9.26263H43.8158L43.8785 12.1068H43.3014C43.2136 11.6754 43.0484 11.2804 42.8059 10.9217C42.5633 10.563 42.2602 10.279 41.8963 10.0698C41.5367 9.8605 41.1394 9.75587 40.7045 9.75587C40.3867 9.75587 40.0752 9.81352 39.7699 9.92883C39.4646 10.0399 39.1782 10.2363 38.9105 10.5181C38.6471 10.7957 38.4338 11.1758 38.2707 11.6584C38.1118 12.1409 38.0324 12.7367 38.0324 13.4456C38.0324 14.052 38.0951 14.6349 38.2205 15.1943C38.346 15.7537 38.6011 16.2342 38.9858 16.6356C39.3705 17.037 39.9142 17.2377 40.6167 17.2377C41.1687 17.2377 41.5869 17.1502 41.8712 16.9751C42.1556 16.7957 42.3396 16.5779 42.4232 16.3217C42.5111 16.0655 42.555 15.7794 42.555 15.4633C42.555 15.1644 42.532 14.9466 42.486 14.81C42.4442 14.6733 42.3417 14.573 42.1786 14.5089C42.0197 14.4448 41.773 14.4128 41.4384 14.4128V13.8235H45.2271V14.4128Z" fill="#414141"/>
<path d="M55.3826 13.4968C55.3826 14.2868 55.1986 15.0278 54.8306 15.7196C54.4626 16.4071 53.9169 16.9601 53.1935 17.3786C52.4742 17.7929 51.6232 18 50.6405 18C49.8376 18 49.1308 17.8676 48.5203 17.6028C47.9098 17.3381 47.41 16.9836 47.0211 16.5395C46.6364 16.0954 46.35 15.6085 46.1618 15.079C45.9778 14.5495 45.8858 14.0178 45.8858 13.484C45.8858 12.711 46.0635 11.9808 46.419 11.2932C46.7744 10.6057 47.3097 10.0527 48.0248 9.63416C48.7398 9.21139 49.595 9 50.5903 9C51.4977 9 52.2693 9.1516 52.9049 9.4548C53.5406 9.75801 54.0361 10.1402 54.3916 10.6014C54.747 11.0626 55 11.5473 55.1505 12.0555C55.3053 12.5594 55.3826 13.0399 55.3826 13.4968ZM53.3503 13.4712C53.3503 12.9843 53.3085 12.5231 53.2248 12.0875C53.1454 11.652 53.0032 11.2591 52.7983 10.9089C52.5934 10.5544 52.3132 10.2747 51.9577 10.0698C51.6023 9.8605 51.1632 9.75587 50.6405 9.75587C49.9212 9.75587 49.3588 9.9395 48.9531 10.3068C48.5517 10.6698 48.2778 11.1267 48.1314 11.6776C47.9892 12.2242 47.9181 12.8221 47.9181 13.4712C47.9181 13.8299 47.9411 14.2036 47.9871 14.5922C48.0331 14.9808 48.1439 15.3801 48.3196 15.79C48.4952 16.1957 48.7754 16.5395 49.1601 16.8214C49.5448 17.0989 50.0425 17.2377 50.653 17.2377C51.2594 17.2377 51.7507 17.0947 52.1271 16.8085C52.5077 16.5181 52.7836 16.1658 52.9551 15.7516C53.1307 15.3331 53.2395 14.9338 53.2813 14.5537C53.3273 14.1737 53.3503 13.8128 53.3503 13.4712Z" fill="#414141"/>
<path d="M63.926 14.9381L63.8696 17.8399H56.2922V17.2505C56.8149 17.2505 57.1515 17.1737 57.3021 17.0199C57.4526 16.8662 57.5279 16.6014 57.5279 16.2256V10.768C57.5279 10.516 57.5028 10.3217 57.4526 10.1851C57.4024 10.0441 57.2854 9.93523 57.1014 9.85836C56.9215 9.78149 56.6518 9.74306 56.2922 9.74306V9.15374H60.5702V9.74306C60.2147 9.74306 59.945 9.77936 59.761 9.85196C59.5812 9.92456 59.462 10.0313 59.4034 10.1722C59.3491 10.3089 59.3219 10.5075 59.3219 10.768V15.7644C59.3219 16.1573 59.3407 16.4391 59.3783 16.61C59.416 16.7808 59.5184 16.911 59.6857 17.0007C59.853 17.0861 60.1269 17.1288 60.5074 17.1288C60.9883 17.1288 61.4086 17.0925 61.7682 17.0199C62.1321 16.9431 62.4666 16.7445 62.7719 16.4242C63.0813 16.0996 63.2737 15.6043 63.349 14.9381H63.926Z" fill="#414141"/>
<path d="M73.5923 13.5737C73.5923 14.2014 73.4877 14.7694 73.2786 15.2776C73.0696 15.7815 72.7998 16.2021 72.4695 16.5395C72.1391 16.8769 71.7857 17.131 71.4094 17.3018C70.6148 17.6605 69.6426 17.8399 68.4926 17.8399H64.6098V17.2505C64.9694 17.2505 65.2412 17.2164 65.4252 17.148C65.6092 17.0754 65.7284 16.9687 65.7828 16.8278C65.8413 16.6868 65.8706 16.4861 65.8706 16.2256V10.7423C65.8706 10.3665 65.7953 10.1018 65.6448 9.94804C65.4942 9.79431 65.1492 9.71744 64.6098 9.71744V9.1153L66.4351 9.07687C66.4979 9.07687 66.7529 9.0726 67.2004 9.06406C67.6479 9.05552 67.9071 9.05125 67.9782 9.05125C68.6766 9.05125 69.2683 9.08968 69.7534 9.16655C70.2427 9.24342 70.6901 9.36726 71.0957 9.53808C71.4679 9.69181 71.8108 9.90747 72.1245 10.1851C72.4381 10.4584 72.7016 10.7722 72.9148 11.1267C73.1323 11.4769 73.2995 11.8591 73.4166 12.2733C73.5337 12.6875 73.5923 13.121 73.5923 13.5737ZM71.5599 13.5352C71.5599 12.6342 71.3906 11.8804 71.0518 11.274C70.7173 10.6633 70.2615 10.2406 69.6844 10.0057C69.4335 9.9032 69.1658 9.83915 68.8815 9.81352C68.6013 9.78363 68.1978 9.76868 67.6709 9.76868V15.8733C67.6709 16.2235 67.6876 16.4797 67.721 16.642C67.7545 16.8 67.8528 16.9217 68.0159 17.0071C68.1789 17.0883 68.4319 17.1288 68.7748 17.1288C69.791 17.1288 70.5082 16.7658 70.9264 16.0399C71.3487 15.3139 71.5599 14.479 71.5599 13.5352Z" fill="#414141"/>
<path d="M86.1063 17.7502H85.5167C85.4289 17.3829 85.2846 17.0541 85.0839 16.7637C84.766 17.1011 84.4022 17.3915 83.9924 17.6349C83.5826 17.8783 83.0285 18 82.3301 18C81.5649 18 80.854 17.81 80.1974 17.4299C79.5451 17.0498 79.0244 16.5203 78.6355 15.8413C78.2466 15.158 78.0522 14.3893 78.0522 13.5352C78.0522 12.9288 78.1567 12.3502 78.3658 11.7993C78.5791 11.2484 78.8802 10.7637 79.2691 10.3452C79.6622 9.92669 80.1284 9.59786 80.6679 9.35872C81.2115 9.11957 81.8053 9 82.4493 9C83.5115 9 84.3897 9.35445 85.0839 10.0633C85.1759 9.87972 85.2658 9.61281 85.3536 9.26263H85.9181L86.0185 12.4591H85.4163C85.3076 11.9167 85.111 11.4342 84.8267 11.0114C84.5423 10.5886 84.2036 10.2662 83.8105 10.0441C83.4216 9.81779 83.0139 9.70463 82.5873 9.70463C82.1106 9.70463 81.682 9.83915 81.3014 10.1082C80.9209 10.373 80.6219 10.7786 80.4044 11.3253C80.1912 11.8719 80.0845 12.553 80.0845 13.3687C80.0845 14.163 80.1744 14.8249 80.3542 15.3544C80.5341 15.8797 80.7557 16.2769 81.0191 16.5459C81.2868 16.8149 81.5544 16.9986 81.8221 17.0968C82.0897 17.1907 82.3406 17.2377 82.5748 17.2377C83.0891 17.2377 83.5512 17.0968 83.961 16.8149C84.375 16.5331 84.7138 16.1786 84.9772 15.7516C85.2407 15.3203 85.4163 14.8932 85.5041 14.4705H86.1063V17.7502Z" fill="#414141"/>
<path d="M97.0208 13.4968C97.0208 14.2868 96.8368 15.0278 96.4688 15.7196C96.1008 16.4071 95.5551 16.9601 94.8316 17.3786C94.1124 17.7929 93.2614 18 92.2786 18C91.4757 18 90.769 17.8676 90.1585 17.6028C89.5479 17.3381 89.0482 16.9836 88.6593 16.5395C88.2746 16.0954 87.9881 15.6085 87.7999 15.079C87.6159 14.5495 87.5239 14.0178 87.5239 13.484C87.5239 12.711 87.7017 11.9808 88.0571 11.2932C88.4126 10.6057 88.9478 10.0527 89.6629 9.63416C90.378 9.21139 91.2332 9 92.2285 9C93.1359 9 93.9075 9.1516 94.5431 9.4548C95.1787 9.75801 95.6743 10.1402 96.0297 10.6014C96.3852 11.0626 96.6382 11.5473 96.7887 12.0555C96.9434 12.5594 97.0208 13.0399 97.0208 13.4968ZM94.9884 13.4712C94.9884 12.9843 94.9466 12.5231 94.863 12.0875C94.7835 11.652 94.6414 11.2591 94.4365 10.9089C94.2315 10.5544 93.9514 10.2747 93.5959 10.0698C93.2405 9.8605 92.8014 9.75587 92.2786 9.75587C91.5594 9.75587 90.9969 9.9395 90.5913 10.3068C90.1898 10.6698 89.9159 11.1267 89.7696 11.6776C89.6274 12.2242 89.5563 12.8221 89.5563 13.4712C89.5563 13.8299 89.5793 14.2036 89.6253 14.5922C89.6713 14.9808 89.7821 15.3801 89.9577 15.79C90.1334 16.1957 90.4136 16.5395 90.7983 16.8214C91.183 17.0989 91.6806 17.2377 92.2912 17.2377C92.8975 17.2377 93.3889 17.0947 93.7653 16.8085C94.1458 16.5181 94.4218 16.1658 94.5933 15.7516C94.7689 15.3331 94.8776 14.9338 94.9194 14.5537C94.9654 14.1737 94.9884 13.8128 94.9884 13.4712Z" fill="#414141"/>
<path d="M102.183 17.8399H97.8676V17.2505C98.2272 17.2505 98.4991 17.2164 98.6831 17.148C98.8671 17.0754 98.9862 16.9687 99.0406 16.8278C99.0992 16.6868 99.1284 16.4861 99.1284 16.2256V10.768C99.1284 10.3922 99.0511 10.1274 98.8963 9.97367C98.7458 9.81993 98.4029 9.74306 97.8676 9.74306V9.15374H102.183V9.74306C101.824 9.74306 101.552 9.77936 101.368 9.85196C101.184 9.92456 101.063 10.0313 101.004 10.1722C100.95 10.3089 100.922 10.5075 100.922 10.768V16.2256C100.922 16.4733 100.95 16.6676 101.004 16.8085C101.058 16.9495 101.173 17.0584 101.349 17.1352C101.529 17.2121 101.807 17.2505 102.183 17.2505V17.8399Z" fill="#414141"/>
<path d="M112 9.74306C111.594 9.74306 111.304 9.78577 111.128 9.87117C110.952 9.95231 110.844 10.074 110.802 10.2363C110.76 10.3986 110.739 10.6633 110.739 11.0306V17.9167H110.162L104.598 11.1651V15.9502C104.598 16.3132 104.619 16.5779 104.661 16.7445C104.707 16.9068 104.82 17.0327 105 17.1224C105.179 17.2078 105.47 17.2505 105.872 17.2505V17.8399H102.71V17.2505C103.087 17.2505 103.358 17.2078 103.526 17.1224C103.697 17.0327 103.802 16.9068 103.839 16.7445C103.881 16.5779 103.902 16.3132 103.902 15.9502V11.5174C103.902 11.1587 103.891 10.8897 103.871 10.7103C103.854 10.531 103.81 10.3751 103.739 10.2427C103.668 10.1061 103.551 9.99715 103.388 9.91601C103.229 9.8306 103.007 9.77295 102.723 9.74306V9.15374H105.2L110.043 14.9957V11.0306C110.043 10.706 110.02 10.4584 109.974 10.2875C109.932 10.1125 109.823 9.97794 109.648 9.88399C109.476 9.79004 109.202 9.74306 108.826 9.74306V9.15374H112V9.74306Z" fill="#414141"/>
<defs>
<linearGradient id="paint0_linear" x1="18.2696" y1="-4.27816" x2="-4.89815" y2="9.09774" gradientUnits="userSpaceOnUse">
<stop stop-color="#F6BD00"/>
<stop offset="1" stop-color="#F4A800"/>
</linearGradient>
</defs>
</svg>
