<svg width="112" height="27" viewBox="0 0 112 27" fill="none" xmlns="http://www.w3.org/2000/svg">
<mask id="mask0" mask-type="alpha" maskUnits="userSpaceOnUse" x="0" y="0" width="27" height="27">
<path fill-rule="evenodd" clip-rule="evenodd" d="M13.3738 0C5.98739 0 0 5.98739 0 13.3733C0 20.7598 5.98739 26.7472 13.3738 26.7472C20.7598 26.7472 26.7472 20.7598 26.7472 13.3733C26.7472 5.98739 20.7598 0 13.3738 0Z" fill="white"/>
</mask>
<g mask="url(#mask0)">
<path fill-rule="evenodd" clip-rule="evenodd" d="M13.3738 0C5.98739 0 0 5.98739 0 13.3733C0 20.7598 5.98739 26.7472 13.3738 26.7472C20.7598 26.7472 26.7472 20.7598 26.7472 13.3733C26.7472 5.98739 20.7598 0 13.3738 0Z" fill="url(#paint0_linear)"/>
</g>
<path fill-rule="evenodd" clip-rule="evenodd" d="M19.5291 11.8356V20.0817H16.3928V19.5654C15.8043 19.8022 15.1761 19.9621 14.5224 20.035V21.7396H12.4389V19.9732C9.07029 19.3899 6.50977 16.48 6.50977 12.9764C6.50977 9.47289 9.07029 6.56212 12.4389 5.97806V4.21362H14.5224V5.91906C16.0597 6.09646 17.4488 6.75377 18.5319 7.73736L18.2468 8.05374L17.0169 9.41944L16.6131 9.85579C16.0402 9.32717 15.3205 8.95219 14.5224 8.79578C14.2517 8.74312 13.9718 8.7154 13.6847 8.7154C13.2509 8.7154 12.8335 8.77836 12.4389 8.89676C11.7783 9.09434 11.185 9.44478 10.7004 9.90727C10.622 9.97419 10.5453 10.0459 10.4733 10.1219C10.1322 10.4767 9.87075 10.8988 9.68843 11.3874C9.67643 11.4187 9.66604 11.4484 9.65524 11.4801C9.65444 11.4816 9.65324 11.4844 9.65204 11.4876C9.47772 11.9513 9.38176 12.453 9.38176 12.9764C9.38176 13.4682 9.46612 13.9414 9.62206 14.3809C9.62286 14.3841 9.62405 14.3877 9.62485 14.3908C9.64445 14.4526 9.66604 14.514 9.68843 14.5742C9.87075 15.0573 10.1322 15.4758 10.4733 15.8314C10.5485 15.9106 10.6276 15.985 10.7108 16.0563C10.7128 16.0571 10.7148 16.0591 10.7148 16.0591C10.8795 16.2155 11.0559 16.3568 11.2418 16.4839C11.2506 16.4899 11.2594 16.4958 11.2682 16.5014C11.624 16.7421 12.0166 16.9302 12.4389 17.0553C12.7875 17.161 13.1558 17.2212 13.5356 17.2347C13.5916 17.2367 13.6472 17.2379 13.7043 17.2379H13.7531C14.0166 17.2347 14.2729 17.2086 14.5224 17.1591C15.1861 17.0339 15.7955 16.7556 16.3124 16.3647C16.326 16.3588 16.338 16.3521 16.3496 16.3465V14.3382H13.7119L14.5224 13.6215L14.9294 13.2619L16.5527 11.8356H19.5291Z" fill="white"/>
<path d="M45.2271 13.7927C44.9846 13.8183 44.8006 13.8589 44.6751 13.9144C44.5539 13.9656 44.4702 14.0575 44.4242 14.1898C44.3782 14.318 44.3552 14.5187 44.3552 14.792V16.829C43.7489 16.829 43.0923 16.9101 42.3856 17.0724C41.8754 17.1877 41.4928 17.2667 41.2377 17.3094C40.9826 17.3564 40.6815 17.3799 40.3344 17.3799C39.4144 17.3799 38.6262 17.16 37.9696 16.7201C37.3131 16.2802 36.8196 15.7144 36.4893 15.0226C36.1631 14.3308 36 13.6197 36 12.8895C36 12.0525 36.1945 11.2902 36.5834 10.6027C36.9723 9.91084 37.4992 9.36849 38.1641 8.97561C38.829 8.57846 39.5566 8.37988 40.347 8.37988C41.3088 8.37988 42.1849 8.71938 42.9752 9.39839C43.0714 9.21476 43.1488 8.9628 43.2073 8.64252H43.8158L43.8785 11.4866H43.3014C43.2136 11.0553 43.0484 10.6603 42.8059 10.3016C42.5633 9.94287 42.2602 9.65889 41.8963 9.44963C41.5367 9.24038 41.1394 9.13575 40.7045 9.13575C40.3867 9.13575 40.0752 9.19341 39.7699 9.30871C39.4646 9.41974 39.1782 9.61618 38.9105 9.89803C38.6471 10.1756 38.4338 10.5557 38.2707 11.0382C38.1118 11.5208 38.0324 12.1165 38.0324 12.8254C38.0324 13.4318 38.0951 14.0148 38.2205 14.5742C38.346 15.1336 38.6011 15.614 38.9858 16.0155C39.3705 16.4169 39.9142 16.6176 40.6167 16.6176C41.1687 16.6176 41.5869 16.5301 41.8712 16.355C42.1556 16.1756 42.3396 15.9578 42.4232 15.7016C42.5111 15.4454 42.555 15.1592 42.555 14.8432C42.555 14.5443 42.532 14.3265 42.486 14.1898C42.4442 14.0532 42.3417 13.9528 42.1786 13.8888C42.0197 13.8247 41.773 13.7927 41.4384 13.7927V13.2034H45.2271V13.7927Z" fill="#E7EDF2"/>
<path d="M55.3826 12.8767C55.3826 13.6667 55.1986 14.4076 54.8306 15.0995C54.4626 15.787 53.9169 16.34 53.1935 16.7585C52.4742 17.1728 51.6232 17.3799 50.6405 17.3799C49.8376 17.3799 49.1308 17.2475 48.5203 16.9827C47.9098 16.718 47.41 16.3635 47.0211 15.9194C46.6364 15.4753 46.35 14.9884 46.1618 14.4589C45.9778 13.9293 45.8858 13.3977 45.8858 12.8639C45.8858 12.0909 46.0635 11.3607 46.419 10.6731C46.7744 9.98558 47.3097 9.43255 48.0248 9.01405C48.7398 8.59127 49.595 8.37988 50.5903 8.37988C51.4977 8.37988 52.2693 8.53148 52.9049 8.83469C53.5406 9.13789 54.0361 9.5201 54.3916 9.98131C54.747 10.4425 55 10.9272 55.1505 11.4354C55.3053 11.9393 55.3826 12.4197 55.3826 12.8767ZM53.3503 12.8511C53.3503 12.3642 53.3085 11.903 53.2248 11.4674C53.1454 11.0318 53.0032 10.639 52.7983 10.2888C52.5934 9.93433 52.3132 9.65462 51.9577 9.44963C51.6023 9.24038 51.1632 9.13575 50.6405 9.13575C49.9212 9.13575 49.3588 9.31938 48.9531 9.68664C48.5517 10.0496 48.2778 10.5066 48.1314 11.0575C47.9892 11.6041 47.9181 12.2019 47.9181 12.8511C47.9181 13.2098 47.9411 13.5834 47.9871 13.9721C48.0331 14.3607 48.1439 14.76 48.3196 15.1699C48.4952 15.5756 48.7754 15.9194 49.1601 16.2012C49.5448 16.4788 50.0425 16.6176 50.653 16.6176C51.2594 16.6176 51.7507 16.4745 52.1271 16.1884C52.5077 15.898 52.7836 15.5457 52.9551 15.1315C53.1307 14.713 53.2395 14.3137 53.2813 13.9336C53.3273 13.5535 53.3503 13.1927 53.3503 12.8511Z" fill="#E7EDF2"/>
<path d="M63.926 14.318L63.8696 17.2197H56.2922V16.6304C56.8149 16.6304 57.1515 16.5535 57.3021 16.3998C57.4526 16.2461 57.5279 15.9813 57.5279 15.6055V10.1479C57.5279 9.8959 57.5028 9.70159 57.4526 9.56494C57.4024 9.42401 57.2854 9.31511 57.1014 9.23825C56.9215 9.16138 56.6518 9.12294 56.2922 9.12294V8.53362H60.5702V9.12294C60.2147 9.12294 59.945 9.15924 59.761 9.23184C59.5812 9.30444 59.462 9.4112 59.4034 9.55212C59.3491 9.68878 59.3219 9.88736 59.3219 10.1479V15.1443C59.3219 15.5372 59.3407 15.819 59.3783 15.9898C59.416 16.1607 59.5184 16.2909 59.6857 16.3806C59.853 16.466 60.1269 16.5087 60.5074 16.5087C60.9883 16.5087 61.4086 16.4724 61.7682 16.3998C62.1321 16.3229 62.4666 16.1244 62.7719 15.8041C63.0813 15.4795 63.2737 14.9842 63.349 14.318H63.926Z" fill="#E7EDF2"/>
<path d="M73.5923 12.9535C73.5923 13.5813 73.4877 14.1493 73.2786 14.6575C73.0696 15.1614 72.7998 15.582 72.4695 15.9194C72.1391 16.2568 71.7857 16.5108 71.4094 16.6817C70.6148 17.0404 69.6426 17.2197 68.4926 17.2197H64.6098V16.6304C64.9694 16.6304 65.2412 16.5963 65.4252 16.5279C65.6092 16.4553 65.7284 16.3486 65.7828 16.2076C65.8413 16.0667 65.8706 15.866 65.8706 15.6055V10.1222C65.8706 9.74643 65.7953 9.48166 65.6448 9.32793C65.4942 9.17419 65.1492 9.09732 64.6098 9.09732V8.49519L66.4351 8.45675C66.4979 8.45675 66.7529 8.45248 67.2004 8.44394C67.6479 8.4354 67.9071 8.43113 67.9782 8.43113C68.6766 8.43113 69.2683 8.46956 69.7534 8.54643C70.2427 8.6233 70.6901 8.74714 71.0957 8.91796C71.4679 9.0717 71.8108 9.28736 72.1245 9.56494C72.4381 9.83825 72.7016 10.1521 72.9148 10.5066C73.1323 10.8568 73.2995 11.239 73.4166 11.6532C73.5337 12.0674 73.5923 12.5009 73.5923 12.9535ZM71.5599 12.9151C71.5599 12.014 71.3906 11.2603 71.0518 10.6539C70.7173 10.0432 70.2615 9.62045 69.6844 9.38558C69.4335 9.28309 69.1658 9.21903 68.8815 9.19341C68.6013 9.16351 68.1978 9.14857 67.6709 9.14857V15.2532C67.6709 15.6034 67.6876 15.8596 67.721 16.0219C67.7545 16.1799 67.8528 16.3016 68.0159 16.387C68.1789 16.4681 68.4319 16.5087 68.7748 16.5087C69.791 16.5087 70.5082 16.1457 70.9264 15.4197C71.3487 14.6938 71.5599 13.8589 71.5599 12.9151Z" fill="#E7EDF2"/>
<path d="M86.1063 17.1301H85.5167C85.4289 16.7628 85.2846 16.434 85.0839 16.1436C84.766 16.4809 84.4022 16.7713 83.9924 17.0148C83.5826 17.2582 83.0285 17.3799 82.3301 17.3799C81.5649 17.3799 80.854 17.1898 80.1974 16.8098C79.5451 16.4297 79.0244 15.9002 78.6355 15.2212C78.2466 14.5379 78.0522 13.7692 78.0522 12.9151C78.0522 12.3087 78.1567 11.7301 78.3658 11.1792C78.5791 10.6283 78.8802 10.1436 79.2691 9.72508C79.6622 9.30657 80.1284 8.97775 80.6679 8.7386C81.2115 8.49946 81.8053 8.37988 82.4493 8.37988C83.5115 8.37988 84.3897 8.73433 85.0839 9.44323C85.1759 9.2596 85.2658 8.99269 85.3536 8.64252H85.9181L86.0185 11.839H85.4163C85.3076 11.2966 85.111 10.814 84.8267 10.3913C84.5423 9.96849 84.2036 9.64608 83.8105 9.42401C83.4216 9.19768 83.0139 9.08451 82.5873 9.08451C82.1106 9.08451 81.682 9.21903 81.3014 9.48807C80.9209 9.75284 80.6219 10.1585 80.4044 10.7051C80.1912 11.2518 80.0845 11.9329 80.0845 12.7486C80.0845 13.5429 80.1744 14.2048 80.3542 14.7343C80.5341 15.2596 80.7557 15.6568 81.0191 15.9258C81.2868 16.1948 81.5544 16.3785 81.8221 16.4767C82.0897 16.5706 82.3406 16.6176 82.5748 16.6176C83.0891 16.6176 83.5512 16.4767 83.961 16.1948C84.375 15.913 84.7138 15.5585 84.9772 15.1315C85.2407 14.7002 85.4163 14.2731 85.5041 13.8503H86.1063V17.1301Z" fill="#E7EDF2"/>
<path d="M97.0208 12.8767C97.0208 13.6667 96.8368 14.4076 96.4688 15.0995C96.1008 15.787 95.5551 16.34 94.8316 16.7585C94.1124 17.1728 93.2614 17.3799 92.2786 17.3799C91.4757 17.3799 90.769 17.2475 90.1585 16.9827C89.5479 16.718 89.0482 16.3635 88.6593 15.9194C88.2746 15.4753 87.9881 14.9884 87.7999 14.4589C87.6159 13.9293 87.5239 13.3977 87.5239 12.8639C87.5239 12.0909 87.7017 11.3607 88.0571 10.6731C88.4126 9.98558 88.9478 9.43255 89.6629 9.01405C90.378 8.59127 91.2332 8.37988 92.2285 8.37988C93.1359 8.37988 93.9075 8.53148 94.5431 8.83469C95.1787 9.13789 95.6743 9.5201 96.0297 9.98131C96.3852 10.4425 96.6382 10.9272 96.7887 11.4354C96.9434 11.9393 97.0208 12.4197 97.0208 12.8767ZM94.9884 12.8511C94.9884 12.3642 94.9466 11.903 94.863 11.4674C94.7835 11.0318 94.6414 10.639 94.4365 10.2888C94.2315 9.93433 93.9514 9.65462 93.5959 9.44963C93.2405 9.24038 92.8014 9.13575 92.2786 9.13575C91.5594 9.13575 90.9969 9.31938 90.5913 9.68664C90.1898 10.0496 89.9159 10.5066 89.7696 11.0575C89.6274 11.6041 89.5563 12.2019 89.5563 12.8511C89.5563 13.2098 89.5793 13.5834 89.6253 13.9721C89.6713 14.3607 89.7821 14.76 89.9577 15.1699C90.1334 15.5756 90.4136 15.9194 90.7983 16.2012C91.183 16.4788 91.6806 16.6176 92.2912 16.6176C92.8975 16.6176 93.3889 16.4745 93.7653 16.1884C94.1458 15.898 94.4218 15.5457 94.5933 15.1315C94.7689 14.713 94.8776 14.3137 94.9194 13.9336C94.9654 13.5535 94.9884 13.1927 94.9884 12.8511Z" fill="#E7EDF2"/>
<path d="M102.183 17.2197H97.8676V16.6304C98.2272 16.6304 98.4991 16.5963 98.6831 16.5279C98.8671 16.4553 98.9862 16.3486 99.0406 16.2076C99.0992 16.0667 99.1284 15.866 99.1284 15.6055V10.1479C99.1284 9.77205 99.0511 9.50729 98.8963 9.35355C98.7458 9.19981 98.4029 9.12294 97.8676 9.12294V8.53362H102.183V9.12294C101.824 9.12294 101.552 9.15924 101.368 9.23184C101.184 9.30444 101.063 9.4112 101.004 9.55212C100.95 9.68878 100.922 9.88736 100.922 10.1479V15.6055C100.922 15.8532 100.95 16.0475 101.004 16.1884C101.058 16.3293 101.173 16.4382 101.349 16.5151C101.529 16.592 101.807 16.6304 102.183 16.6304V17.2197Z" fill="#E7EDF2"/>
<path d="M112 9.12294C111.594 9.12294 111.304 9.16565 111.128 9.25106C110.952 9.3322 110.844 9.4539 110.802 9.61618C110.76 9.77846 110.739 10.0432 110.739 10.4105V17.2966H110.162L104.598 10.545V15.3301C104.598 15.693 104.619 15.9578 104.661 16.1244C104.707 16.2866 104.82 16.4126 105 16.5023C105.179 16.5877 105.47 16.6304 105.872 16.6304V17.2197H102.71V16.6304C103.087 16.6304 103.358 16.5877 103.526 16.5023C103.697 16.4126 103.802 16.2866 103.839 16.1244C103.881 15.9578 103.902 15.693 103.902 15.3301V10.8973C103.902 10.5386 103.891 10.2696 103.871 10.0902C103.854 9.91084 103.81 9.75497 103.739 9.62259C103.668 9.48593 103.551 9.37704 103.388 9.2959C103.229 9.21049 103.007 9.15284 102.723 9.12294V8.53362H105.2L110.043 14.3756V10.4105C110.043 10.0859 110.02 9.83825 109.974 9.66743C109.932 9.49234 109.823 9.35782 109.648 9.26387C109.476 9.16992 109.202 9.12294 108.826 9.12294V8.53362H112V9.12294Z" fill="#E7EDF2"/>
<defs>
<linearGradient id="paint0_linear" x1="18.2696" y1="-4.89827" x2="-4.89815" y2="8.47762" gradientUnits="userSpaceOnUse">
<stop stop-color="#F6BD00"/>
<stop offset="1" stop-color="#F4A800"/>
</linearGradient>
</defs>
</svg>
