<svg width="25" height="18" viewBox="0 0 25 18" fill="none" xmlns="http://www.w3.org/2000/svg">
<path d="M0.416626 1.25002C0.416626 0.92955 0.543932 0.622206 0.770539 0.3956C0.997145 0.168993 1.30449 0.041687 1.62496 0.041687H23.375C23.6954 0.041687 24.0028 0.168993 24.2294 0.3956C24.456 0.622206 24.5833 0.92955 24.5833 1.25002C24.5833 1.57049 24.456 1.87783 24.2294 2.10444C24.0028 2.33105 23.6954 2.45835 23.375 2.45835H1.62496C1.30449 2.45835 0.997145 2.33105 0.770539 2.10444C0.543932 1.87783 0.416626 1.57049 0.416626 1.25002Z" fill="#858585"/>
<path d="M0.416626 8.53872C0.416626 8.21825 0.543932 7.9109 0.770539 7.6843C0.997145 7.45769 1.30449 7.33038 1.62496 7.33038H23.375C23.6954 7.33038 24.0028 7.45769 24.2294 7.6843C24.456 7.9109 24.5833 8.21825 24.5833 8.53872C24.5833 8.85919 24.456 9.16653 24.2294 9.39314C24.0028 9.61974 23.6954 9.74705 23.375 9.74705H1.62496C1.30449 9.74705 0.997145 9.61974 0.770539 9.39314C0.543932 9.16653 0.416626 8.85919 0.416626 8.53872Z" fill="#858585"/>
<path d="M1.62496 14.619C1.30449 14.619 0.997145 14.7463 0.770539 14.9729C0.543932 15.1995 0.416626 15.5069 0.416626 15.8274C0.416626 16.1478 0.543932 16.4552 0.770539 16.6818C0.997145 16.9084 1.30449 17.0357 1.62496 17.0357H23.375C23.6954 17.0357 24.0028 16.9084 24.2294 16.6818C24.456 16.4552 24.5833 16.1478 24.5833 15.8274C24.5833 15.5069 24.456 15.1995 24.2294 14.9729C24.0028 14.7463 23.6954 14.619 23.375 14.619H1.62496Z" fill="#858585"/>
</svg>
