<svg width="31" height="21" viewBox="0 0 31 21" fill="none" xmlns="http://www.w3.org/2000/svg">
<rect width="31" height="21" rx="5" fill="#E7EDF2"/>
<path d="M7 10.716C7 10.2467 7.16867 9.84333 7.506 9.506C7.858 9.16867 8.276 9 8.76 9C9.22933 9 9.64 9.16133 9.992 9.484C10.344 9.80667 10.52 10.2027 10.52 10.672C10.52 11.1413 10.344 11.5447 9.992 11.882C9.65467 12.2193 9.244 12.388 8.76 12.388C8.52533 12.388 8.298 12.344 8.078 12.256C7.87267 12.168 7.68933 12.0507 7.528 11.904C7.36667 11.7573 7.23467 11.5813 7.132 11.376C7.044 11.1707 7 10.9507 7 10.716Z" fill="#2F4366"/>
<path d="M13.5098 10.716C13.5098 10.2467 13.6784 9.84333 14.0158 9.506C14.3678 9.16867 14.7858 9 15.2698 9C15.7391 9 16.1498 9.16133 16.5018 9.484C16.8538 9.80667 17.0298 10.2027 17.0298 10.672C17.0298 11.1413 16.8538 11.5447 16.5018 11.882C16.1644 12.2193 15.7538 12.388 15.2698 12.388C15.0351 12.388 14.8078 12.344 14.5878 12.256C14.3824 12.168 14.1991 12.0507 14.0378 11.904C13.8764 11.7573 13.7444 11.5813 13.6418 11.376C13.5538 11.1707 13.5098 10.9507 13.5098 10.716Z" fill="#2F4366"/>
<path d="M20.0195 10.716C20.0195 10.2467 20.1882 9.84333 20.5255 9.506C20.8775 9.16867 21.2955 9 21.7795 9C22.2489 9 22.6595 9.16133 23.0115 9.484C23.3635 9.80667 23.5395 10.2027 23.5395 10.672C23.5395 11.1413 23.3635 11.5447 23.0115 11.882C22.6742 12.2193 22.2635 12.388 21.7795 12.388C21.5449 12.388 21.3175 12.344 21.0975 12.256C20.8922 12.168 20.7089 12.0507 20.5475 11.904C20.3862 11.7573 20.2542 11.5813 20.1515 11.376C20.0635 11.1707 20.0195 10.9507 20.0195 10.716Z" fill="#2F4366"/>
</svg>
