<svg width="80" height="80" viewBox="0 0 80 80" fill="none" xmlns="http://www.w3.org/2000/svg">
<path fill-rule="evenodd" clip-rule="evenodd" d="M18.88 13H57.6C60.029 13.003 61.997 14.9784 62 17.4167V61.5833C61.997 64.0216 60.029 65.997 57.6 66H18.88C18.394 66 18 65.6045 18 65.1167V13.8833C18 13.3955 18.394 13 18.88 13ZM57.6 64.2333C59.0579 64.2333 60.24 63.0468 60.24 61.5833V17.4167C60.24 15.9532 59.0579 14.7667 57.6 14.7667H19.76V64.2333H57.6Z" fill="#343434"/>
<path fill-rule="evenodd" clip-rule="evenodd" d="M28.9805 41.2048C28.9874 41.2208 28.9947 41.2367 29.0033 41.2522C29.0087 41.2595 29.0156 41.2647 29.0223 41.2697L29.0224 41.2697C29.0288 41.2746 29.0352 41.2794 29.0402 41.2859C31.7068 44.6251 35.7399 46.5678 40.0037 46.5665C44.267 46.5652 48.2992 44.6204 50.9637 41.2798C50.9684 41.2744 50.9738 41.2707 50.9793 41.2671C50.9855 41.263 50.9916 41.2589 50.9964 41.2522C51.005 41.2367 51.0123 41.2208 51.0191 41.2048C55.0999 36.0743 55.0999 28.792 51.0191 23.6615C51.0123 23.6455 51.005 23.6296 50.9964 23.614C50.9909 23.6068 50.984 23.6016 50.9773 23.5966C50.9708 23.5917 50.9645 23.5869 50.9594 23.5804C48.2936 20.2424 44.2619 18.2998 39.9998 18.2998C35.7377 18.2998 31.706 20.2424 29.0402 23.5804C29.0352 23.5869 29.0288 23.5917 29.0223 23.5966C29.0156 23.6016 29.0087 23.6068 29.0033 23.614C28.9947 23.6296 28.9874 23.6455 28.9805 23.6615C24.8997 28.792 24.8997 36.0743 28.9805 41.2048ZM29.906 25.3665C30.5725 25.7939 31.2746 26.1618 32.005 26.4663C31.544 28.1234 31.2827 29.8302 31.2269 31.5498H27.7245C27.8796 29.3281 28.6337 27.1909 29.906 25.3665ZM48.7727 31.5498H52.2751C52.12 29.3281 51.3659 27.1909 50.0936 25.3665C49.4267 25.7922 48.7246 26.1588 47.9946 26.4629C48.4561 28.1208 48.7173 29.8289 48.7727 31.5498ZM50.0936 39.4998C49.4276 39.0724 48.7255 38.7045 47.9954 38.4C48.4556 36.7428 48.7165 35.0361 48.7727 33.3165H52.2751C52.12 35.5382 51.3659 37.6753 50.0936 39.4998ZM47.0136 33.3165H40.8798V36.9098C42.7206 36.9693 44.5459 37.2703 46.3093 37.8047C46.7175 36.3413 46.9539 34.8351 47.0136 33.3165ZM40.8798 31.5498V27.9794C42.721 27.9151 44.5459 27.6076 46.3068 27.0641C46.7158 28.5267 46.953 30.032 47.0136 31.5498H40.8798ZM32.986 31.5498H39.1198V27.9794C37.2777 27.9147 35.4524 27.6072 33.6903 27.0641C33.2821 28.5267 33.0458 30.032 32.986 31.5498ZM39.1198 33.3165V36.9098C37.2799 36.9693 35.4559 37.2699 33.6937 37.8047C33.2847 36.3413 33.047 34.8351 32.986 33.3165H39.1198ZM39.1198 44.6868V38.6712C37.4724 38.7295 35.8396 38.9999 34.2605 39.4752C35.3841 42.2602 37.1364 44.2292 39.1198 44.6868ZM40.8798 44.6868V38.6721C42.5272 38.7312 44.16 39.0012 45.7392 39.4761C44.6155 42.2602 42.8633 44.2292 40.8798 44.6868ZM40.8798 20.1795V26.195C42.5272 26.1364 44.16 25.8659 45.7392 25.3911C44.6155 22.6061 42.8633 20.6371 40.8798 20.1795ZM39.1198 20.1795V26.1942C37.4724 26.1351 35.8396 25.8651 34.2605 25.3902C35.3841 22.6061 37.1364 20.6371 39.1198 20.1795ZM32.005 38.4034C31.5436 36.7454 31.2823 35.0374 31.2269 33.3165H27.7245C27.8796 35.5382 28.6337 37.6753 29.906 39.4998C30.5729 39.0741 31.275 38.7075 32.005 38.4034ZM31.0284 40.8822C31.5208 40.5768 32.0351 40.3085 32.5675 40.0791C33.029 41.2846 33.6568 42.4194 34.4319 43.4502C33.1583 42.7981 32.0063 41.929 31.0284 40.8822ZM47.4321 40.0782C46.9711 41.2846 46.3437 42.4194 45.5677 43.4502C46.8417 42.7981 47.9933 41.929 48.9713 40.8813C48.4784 40.5768 47.9641 40.3085 47.4321 40.0782ZM48.976 23.9841C48.4831 24.2895 47.9688 24.5578 47.4368 24.7872C46.9749 23.5817 46.3472 22.4469 45.572 21.4161C46.846 22.0682 47.9976 22.9373 48.976 23.9841ZM32.5675 24.7881C33.0286 23.5817 33.6559 22.4469 34.4319 21.4161C33.1579 22.0682 32.0063 22.9373 31.0284 23.985C31.5212 24.2895 32.0356 24.5578 32.5675 24.7881Z" fill="#343434"/>
<path fill-rule="evenodd" clip-rule="evenodd" d="M25.92 50.1001H54.08C54.566 50.1001 54.96 50.4956 54.96 50.9834V59.8168C54.96 60.3046 54.566 60.7001 54.08 60.7001H25.92C25.4341 60.7001 25.04 60.3046 25.04 59.8168V50.9834C25.04 50.4956 25.4341 50.1001 25.92 50.1001ZM26.8 58.9334H53.2V51.8668H26.8V58.9334Z" fill="#343434"/>
</svg>
