<svg width="24" height="24" viewBox="0 0 24 24" fill="none" xmlns="http://www.w3.org/2000/svg">
<path fill-rule="evenodd" clip-rule="evenodd" d="M9.44084 18.4214C11.6313 18.4214 13.6224 17.6446 15.176 16.3312L22.1449 23.3002C22.3044 23.4585 22.5028 23.5383 22.7223 23.5383C22.9411 23.5383 23.1404 23.4585 23.3 23.3002C23.6178 22.9811 23.6178 22.4629 23.3 22.1451L16.3311 15.1761C17.6251 13.6225 18.4213 11.612 18.4213 9.44091C18.4213 4.4835 14.3992 0.461426 9.44084 0.461426C4.50288 0.461426 0.461426 4.50292 0.461426 9.44091C0.461426 14.3993 4.50288 18.4214 9.44084 18.4214ZM9.44088 2.09392C13.5027 2.09392 16.7891 5.39945 16.7891 9.44094C16.7891 13.5028 13.5027 16.7892 9.44088 16.7892C5.38 16.7892 2.09392 13.4834 2.09392 9.44094C2.09392 5.39945 5.39942 2.09392 9.44088 2.09392Z" fill="#858585"/>
</svg>
