<svg width="35" height="22" viewBox="0 0 35 22" fill="none" xmlns="http://www.w3.org/2000/svg">
<path d="M11.4807 2.69995H7.97193C7.73928 2.69995 7.51616 2.79237 7.35165 2.95687C7.18715 3.12138 7.09473 3.3445 7.09473 3.57715C7.09473 3.80979 7.18715 4.03291 7.35165 4.19742C7.51616 4.36193 7.73928 4.45435 7.97193 4.45435H11.4807C11.7134 4.45435 11.9365 4.36193 12.101 4.19742C12.2655 4.03291 12.3579 3.80979 12.3579 3.57715C12.3579 3.3445 12.2655 3.12138 12.101 2.95687C11.9365 2.79237 11.7134 2.69995 11.4807 2.69995Z" fill="#858585"/>
<path d="M11.4807 7.96313H4.46314C4.23049 7.96313 4.00737 8.05555 3.84286 8.22006C3.67836 8.38456 3.58594 8.60768 3.58594 8.84033C3.58594 9.07298 3.67836 9.2961 3.84286 9.4606C4.00737 9.62511 4.23049 9.71753 4.46314 9.71753H11.4807C11.7134 9.71753 11.9365 9.62511 12.101 9.4606C12.2655 9.2961 12.3579 9.07298 12.3579 8.84033C12.3579 8.60768 12.2655 8.38456 12.101 8.22006C11.9365 8.05555 11.7134 7.96313 11.4807 7.96313Z" fill="#858585"/>
<path d="M11.4807 18.4895H6.21753C5.98488 18.4895 5.76176 18.5819 5.59726 18.7464C5.43275 18.9109 5.34033 19.134 5.34033 19.3667C5.34033 19.5993 5.43275 19.8225 5.59726 19.987C5.76176 20.1515 5.98488 20.2439 6.21753 20.2439H11.4807C11.7134 20.2439 11.9365 20.1515 12.101 19.987C12.2655 19.8225 12.3579 19.5993 12.3579 19.3667C12.3579 19.134 12.2655 18.9109 12.101 18.7464C11.9365 18.5819 11.7134 18.4895 11.4807 18.4895Z" fill="#858585"/>
<path d="M11.4807 13.2261H0.954348C0.7217 13.2261 0.498581 13.3185 0.334074 13.483C0.169568 13.6475 0.0771484 13.8706 0.0771484 14.1033C0.0771484 14.3359 0.169568 14.559 0.334074 14.7235C0.498581 14.8881 0.7217 14.9805 0.954348 14.9805H11.4807C11.7134 14.9805 11.9365 14.8881 12.101 14.7235C12.2655 14.559 12.3579 14.3359 12.3579 14.1033C12.3579 13.8706 12.2655 13.6475 12.101 13.483C11.9365 13.3185 11.7134 13.2261 11.4807 13.2261Z" fill="#858585"/>
<path d="M33.6253 11.3573C33.6253 16.6935 29.2995 21.0193 23.9633 21.0193C18.6271 21.0193 14.3013 16.6935 14.3013 11.3573C14.3013 6.02114 18.6271 1.69531 23.9633 1.69531C29.2995 1.69531 33.6253 6.02114 33.6253 11.3573Z" stroke="#858585" stroke-width="1.5"/>
<path fill-rule="evenodd" clip-rule="evenodd" d="M28.2509 10.6397V15.8268H26.1853V15.502C25.7977 15.651 25.384 15.7516 24.9534 15.7974V16.8697H23.5812V15.7586C21.3626 15.3917 19.6763 13.5612 19.6763 11.3573C19.6763 9.15348 21.3626 7.3225 23.5812 6.95511V5.84521H24.9534V6.918C25.9659 7.02958 26.8807 7.44306 27.5941 8.06177L27.4064 8.26078L26.5964 9.11985L26.3304 9.39434C25.953 9.06182 25.479 8.82594 24.9534 8.72756C24.7752 8.69443 24.5908 8.67699 24.4017 8.67699C24.116 8.67699 23.8411 8.7166 23.5812 8.79107C23.1462 8.91536 22.7554 9.1358 22.4362 9.42672C22.3846 9.46881 22.3341 9.5139 22.2867 9.56172C22.0621 9.7849 21.8898 10.0504 21.7698 10.3578C21.7619 10.3775 21.755 10.3961 21.7479 10.4161C21.7474 10.4171 21.7466 10.4188 21.7458 10.4208C21.631 10.7125 21.5678 11.028 21.5678 11.3573C21.5678 11.6667 21.6233 11.9643 21.726 12.2408C21.7266 12.2428 21.7274 12.245 21.7279 12.247C21.7408 12.2859 21.755 12.3245 21.7698 12.3624C21.8898 12.6662 22.0621 12.9295 22.2867 13.1532C22.3362 13.203 22.3883 13.2498 22.4431 13.2947C22.4444 13.2952 22.4457 13.2964 22.4457 13.2964C22.5542 13.3948 22.6703 13.4837 22.7928 13.5637C22.7986 13.5674 22.8044 13.5711 22.8102 13.5746C23.0445 13.7261 23.3031 13.8444 23.5812 13.9231C23.8108 13.9896 24.0534 14.0275 24.3035 14.0359C24.3404 14.0372 24.377 14.0379 24.4147 14.0379H24.4468C24.6203 14.0359 24.7891 14.0195 24.9534 13.9883C25.3906 13.9096 25.7919 13.7345 26.1324 13.4887C26.1413 13.485 26.1492 13.4807 26.1569 13.4772V12.2139H24.4197L24.9534 11.7631L25.2215 11.5369L26.2906 10.6397H28.2509Z" fill="#858585"/>
</svg>
