<svg width="295" height="18" viewBox="0 0 295 18" fill="none" xmlns="http://www.w3.org/2000/svg">
<g filter="url(#filter0_d)">
<path fill-rule="evenodd" clip-rule="evenodd" d="M14.6218 9.79238H15.1144V15.1265H14.6218C14.4843 14.5201 14.2361 13.9848 13.8771 13.5207C12.51 15.033 10.7648 15.7891 8.64149 15.7891C6.396 15.7891 4.56107 15.0929 3.13664 13.7003C1.71221 12.3078 1 10.4662 1 8.17529C1 6.67049 1.32842 5.25368 1.98526 3.92481C2.6421 2.59595 3.55861 1.60961 4.73482 0.965762C5.91103 0.321918 7.20178 0 8.60712 0C9.76805 0 10.8201 0.233952 11.7634 0.701862C12.7066 1.16977 13.4112 1.68821 13.8771 2.25719C14.2055 1.62083 14.4041 0.962023 14.4728 0.280745H14.9769L15.1144 6.05286H14.6218C14.2781 4.00154 13.5773 2.57537 12.5195 1.77431C11.4617 0.973245 10.2683 0.57272 8.93935 0.57272C7.31252 0.57272 6.01986 1.2203 5.06133 2.51547C4.1028 3.81065 3.62354 5.66355 3.62354 8.07422C3.62354 10.3576 4.14671 12.1076 5.19308 13.3242C6.23944 14.5407 7.54165 15.149 9.09975 15.149C9.93226 15.149 10.7838 14.9506 11.6545 14.5538C12.5252 14.157 13.2145 13.4851 13.7224 12.5381C14.2304 11.591 14.5301 10.6758 14.6218 9.79238ZM33.7197 15.5083H29.5381C28.7972 14.9992 27.663 13.6667 26.1355 11.5105C25.6467 10.8218 25.1388 10.1611 24.6118 9.52847C24.0848 8.89585 23.722 8.5103 23.5234 8.3718C23.3248 8.2333 23.0155 8.16405 22.5954 8.16405H21.9768V11.5442C21.9768 12.7421 22.0054 13.5263 22.0627 13.8969C22.12 14.2674 22.2728 14.5426 22.521 14.7222C22.7692 14.9019 23.2446 14.9918 23.9473 14.9918H24.692V15.5083H17.2567V14.9918H17.7608C18.4253 14.9918 18.8855 14.9094 19.1413 14.7447C19.3972 14.58 19.5595 14.3236 19.6282 13.9755C19.697 13.6273 19.7313 12.8169 19.7313 11.5442V4.0764C19.7313 2.86358 19.697 2.08125 19.6282 1.72938C19.5595 1.37751 19.4067 1.1342 19.17 0.99944C18.9332 0.864682 18.4215 0.797304 17.6348 0.797304H17.3713V0.280734L19.5938 0.168436C21.0756 0.101056 22.2517 0.0673674 23.1224 0.0673674C24.6042 0.0673674 25.809 0.202124 26.737 0.47164C27.665 0.741156 28.4153 1.18286 28.9882 1.79676C29.561 2.41065 29.8474 3.14433 29.8474 3.9978C29.8474 4.99351 29.4732 5.84322 28.7247 6.54696C27.9762 7.2507 26.8764 7.68865 25.4252 7.86085C26.0744 8.1678 27.1208 9.27579 28.5643 11.1849C29.7405 12.7346 30.6646 13.749 31.3368 14.2281C32.0089 14.7073 32.8032 14.9618 33.7197 14.9918V15.5083ZM21.9769 7.64749C22.5497 7.63251 23.1416 7.61006 23.7527 7.58011C24.3637 7.55016 24.8945 7.46781 25.3451 7.33305C25.7957 7.1983 26.1604 7.00178 26.4392 6.74349C26.718 6.4852 26.9376 6.14644 27.098 5.72719C27.2584 5.30795 27.3385 4.79138 27.3385 4.17748C27.3385 3.1069 27.0655 2.2497 26.5194 1.60586C25.9733 0.962013 24.7838 0.640096 22.9507 0.640096C22.6681 0.640096 22.3435 0.655069 21.9769 0.685015V7.64749ZM47.1582 10.7694H47.7081L47.3758 15.5083H34.5102V14.9918H34.831C35.6024 14.9918 36.1007 14.8907 36.326 14.6886C36.5514 14.4864 36.6946 14.23 36.7557 13.9193C36.8168 13.6086 36.8473 12.8169 36.8473 11.5442V4.07642C36.8473 2.916 36.8149 2.15238 36.7499 1.78554C36.685 1.4187 36.5361 1.16229 36.3031 1.0163C36.0702 0.87031 35.5795 0.797317 34.831 0.797317V0.280747H45.9323L46.2989 4.07642H45.7605C45.5161 3.01332 45.2163 2.25906 44.8611 1.81361C44.506 1.36816 44.084 1.08742 43.5952 0.971379C43.1064 0.855337 42.3197 0.797317 41.2352 0.797317H39.0813V7.18707H40.7311C41.4872 7.18707 42.0161 7.12344 42.3178 6.99616C42.6195 6.86889 42.8181 6.67612 42.9135 6.41783C43.009 6.15954 43.0567 5.65608 43.0567 4.90742H43.5952V10.118H43.0567C43.0567 9.27207 42.9842 8.70497 42.8391 8.41673C42.694 8.1285 42.482 7.94134 42.2032 7.85524C41.9245 7.76915 41.4528 7.7261 40.7884 7.7261H39.0813V11.3309C39.0813 13.1351 39.1997 14.1963 39.4365 14.5145C39.6733 14.8327 40.311 14.9918 41.3497 14.9918H42.5068C43.3241 14.9918 43.9962 14.8888 44.5232 14.683C45.0502 14.4771 45.5523 14.0541 46.0297 13.414C46.5071 12.7739 46.8832 11.8924 47.1582 10.7694ZM58.5574 9.89344H52.6573L52.2563 10.8592C51.6606 12.2592 51.3627 13.1725 51.3627 13.5993C51.3627 14.056 51.5212 14.4022 51.8382 14.638C52.1551 14.8739 52.5618 14.9918 53.0583 14.9918V15.5083H48.4413V14.9918C49.1287 14.887 49.6404 14.6493 49.9765 14.2787C50.3126 13.9081 50.7174 13.1276 51.1909 11.9373C51.2291 11.825 51.4124 11.3907 51.7408 10.6346L56.2547 0.0673674H56.7015L61.8913 12.1619L62.6016 13.7565C62.762 14.1158 62.9777 14.3985 63.2489 14.6043C63.52 14.8102 63.9267 14.9394 64.469 14.9918V15.5083H58.3627V14.9918C59.1111 14.9918 59.6171 14.9375 59.8806 14.8289C60.1441 14.7204 60.2759 14.5051 60.2759 14.1832C60.2759 14.0185 60.1002 13.5282 59.7489 12.7121L58.5574 9.89344ZM58.3627 9.38813L55.6131 2.89731L52.875 9.38813H58.3627ZM63.7015 3.94166H63.1745L63.2547 0.280747H78.3314L78.4116 3.94166H77.919C77.7433 2.93846 77.5027 2.21415 77.1972 1.76869C76.8917 1.32324 76.5633 1.04999 76.212 0.94892C75.8606 0.847851 75.2611 0.797317 74.4133 0.797317H71.9158V11.5442C71.9158 12.7346 71.9444 13.5169 72.0017 13.8913C72.059 14.2656 72.2137 14.5426 72.4657 14.7223C72.7177 14.9019 73.1913 14.9918 73.8863 14.9918H74.6424V15.5083H66.8978V14.9918H67.6998C68.3643 14.9918 68.8244 14.9094 69.0803 14.7447C69.3362 14.58 69.5004 14.3236 69.5729 13.9755C69.6455 13.6274 69.6818 12.8169 69.6818 11.5442V0.797317H67.379C66.3785 0.797317 65.7064 0.844108 65.3627 0.93769C65.019 1.03127 64.6963 1.31389 64.3946 1.78554C64.0929 2.25719 63.8619 2.97589 63.7015 3.94166ZM92.3428 10.7694H92.8927L92.5604 15.5083H79.6948V14.9918H80.0156C80.787 14.9918 81.2853 14.8907 81.5106 14.6886C81.7359 14.4864 81.8791 14.23 81.9402 13.9193C82.0013 13.6086 82.0319 12.8169 82.0319 11.5442V4.07642C82.0319 2.916 81.9994 2.15238 81.9345 1.78554C81.8696 1.4187 81.7207 1.16229 81.4877 1.0163C81.2548 0.87031 80.764 0.797317 80.0156 0.797317V0.280747H91.1169L91.4835 4.07642H90.9451C90.7006 3.01332 90.4009 2.25906 90.0457 1.81361C89.6906 1.36816 89.2686 1.08742 88.7798 0.971379C88.291 0.855337 87.5043 0.797317 86.4197 0.797317H84.2659V7.18707H85.9156C86.6718 7.18707 87.2007 7.12344 87.5024 6.99616C87.8041 6.86889 88.0026 6.67612 88.0981 6.41783C88.1936 6.15954 88.2413 5.65608 88.2413 4.90742H88.7798V10.118H88.2413C88.2413 9.27207 88.1688 8.70497 88.0236 8.41673C87.8785 8.1285 87.6666 7.94134 87.3878 7.85524C87.109 7.76915 86.6374 7.7261 85.9729 7.7261H84.2659V11.3309C84.2659 13.1351 84.3843 14.1963 84.6211 14.5145C84.8578 14.8327 85.4956 14.9918 86.5343 14.9918H87.6914C88.5086 14.9918 89.1807 14.8888 89.7078 14.683C90.2348 14.4771 90.7369 14.0541 91.2143 13.414C91.6916 12.7739 92.0678 11.8924 92.3428 10.7694ZM108.313 8.84908L111.372 3.8069C111.876 2.98338 112.128 2.39944 112.128 2.05505C112.128 1.74062 111.994 1.45239 111.727 1.19036C111.46 0.92833 110.982 0.797317 110.295 0.797317V0.280747H115.37V0.797317C114.668 0.894643 114.1 1.15105 113.669 1.56656C113.237 1.98206 112.686 2.73632 112.013 3.82936L108.531 9.52287V11.5442C108.531 12.8394 108.571 13.6648 108.651 14.0204C108.731 14.376 108.903 14.6268 109.166 14.7728C109.43 14.9188 109.947 14.9918 110.719 14.9918V15.5083H104.097V14.9918H104.349C105.014 14.9918 105.474 14.9094 105.73 14.7447C105.985 14.58 106.148 14.3236 106.216 13.9755C106.285 13.6274 106.32 12.8169 106.32 11.5442V9.66886L102.447 3.43632C101.661 2.17858 101.137 1.42806 100.878 1.18475C100.618 0.941432 100.152 0.81229 99.48 0.797317V0.280747H105.781V0.797317C104.605 0.797317 104.017 1.05934 104.017 1.5834C104.017 1.79303 104.212 2.21227 104.601 2.84114L108.313 8.84908ZM115.05 7.79348C115.05 5.4427 115.851 3.55611 117.455 2.13366C119.059 0.711213 121.06 0 123.459 0C125.88 0 127.902 0.703727 129.525 2.1112C131.148 3.51868 131.959 5.43895 131.959 7.87209C131.959 10.2304 131.182 12.1394 129.628 13.5993C128.074 15.0592 126.029 15.7891 123.493 15.7891C121.026 15.7891 119.002 15.0592 117.421 13.5993C115.84 12.1394 115.05 10.2042 115.05 7.79348ZM117.673 7.87209C117.673 10.3202 118.171 12.1581 119.168 13.3859C120.165 14.6137 121.66 15.2276 123.653 15.2276C125.402 15.2276 126.785 14.6137 127.801 13.3859C128.816 12.1581 129.324 10.3277 129.324 7.89455C129.324 5.52879 128.824 3.7152 127.823 2.45371C126.823 1.19223 125.372 0.561494 123.47 0.561494C121.599 0.561494 120.165 1.17725 119.168 2.40879C118.171 3.64034 117.673 5.46142 117.673 7.87209ZM145.547 0.280747H150.737V0.797317C150.049 0.842237 149.536 0.993837 149.196 1.25212C148.856 1.51041 148.648 1.80051 148.571 2.12243C148.495 2.44436 148.457 3.06947 148.457 3.99781V9.06245C148.457 10.3576 148.405 11.3196 148.302 11.9485C148.199 12.5774 147.901 13.195 147.408 13.8014C146.916 14.4078 146.223 14.8907 145.329 15.2501C144.435 15.6094 143.404 15.7891 142.236 15.7891C140.853 15.7891 139.683 15.5589 138.724 15.0985C137.766 14.638 137.082 14.0429 136.674 13.3129C136.265 12.583 136.061 11.6041 136.061 10.3763L136.072 8.81539V4.07642C136.072 2.86359 136.036 2.08126 135.963 1.72939C135.891 1.37752 135.738 1.13421 135.505 0.999454C135.272 0.864695 134.762 0.797317 133.976 0.797317H133.621V0.280747H140.712V0.797317H140.403C139.639 0.797317 139.139 0.859081 138.902 0.982609C138.665 1.10614 138.507 1.33635 138.427 1.67324C138.346 2.01014 138.306 2.81119 138.306 4.07642V8.87154C138.306 10.5336 138.385 11.7127 138.541 12.4089C138.698 13.1052 139.139 13.7135 139.864 14.2338C140.59 14.7541 141.556 15.0142 142.763 15.0142C143.71 15.0142 144.571 14.8402 145.346 14.4921C146.122 14.1439 146.698 13.7097 147.076 13.1894C147.454 12.6691 147.685 12.1338 147.769 11.5835C147.853 11.0333 147.895 10.1667 147.895 8.98384V3.79567C147.895 2.93472 147.846 2.33206 147.746 1.98768C147.647 1.64329 147.433 1.37004 147.105 1.1679C146.776 0.965763 146.257 0.842237 145.547 0.797317V0.280747ZM168.299 15.5083H164.118C163.377 14.9992 162.243 13.6667 160.715 11.5105C160.226 10.8218 159.718 10.1611 159.191 9.52847C158.664 8.89585 158.302 8.5103 158.103 8.3718C157.904 8.2333 157.595 8.16405 157.175 8.16405H156.556V11.5442C156.556 12.7421 156.585 13.5263 156.642 13.8969C156.7 14.2674 156.852 14.5426 157.101 14.7222C157.349 14.9019 157.824 14.9918 158.527 14.9918H159.272V15.5083H151.836V14.9918H152.34C153.005 14.9918 153.465 14.9094 153.721 14.7447C153.977 14.58 154.139 14.3236 154.208 13.9755C154.276 13.6273 154.311 12.8169 154.311 11.5442V4.0764C154.311 2.86358 154.276 2.08125 154.208 1.72938C154.139 1.37751 153.986 1.1342 153.749 0.99944C153.513 0.864682 153.001 0.797304 152.214 0.797304H151.951V0.280734L154.173 0.168436C155.655 0.101056 156.831 0.0673674 157.702 0.0673674C159.184 0.0673674 160.389 0.202124 161.317 0.47164C162.244 0.741156 162.995 1.18286 163.568 1.79676C164.141 2.41065 164.427 3.14433 164.427 3.9978C164.427 4.99351 164.053 5.84322 163.304 6.54696C162.556 7.2507 161.456 7.68865 160.005 7.86085C160.654 8.1678 161.7 9.27579 163.144 11.1849C164.32 12.7346 165.244 13.749 165.916 14.2281C166.588 14.7073 167.383 14.9618 168.299 14.9918V15.5083ZM156.556 7.64749C157.129 7.63251 157.721 7.61006 158.332 7.58011C158.943 7.55016 159.474 7.46781 159.925 7.33305C160.375 7.1983 160.74 7.00178 161.019 6.74349C161.298 6.4852 161.517 6.14644 161.678 5.72719C161.838 5.30795 161.918 4.79138 161.918 4.17748C161.918 3.1069 161.645 2.2497 161.099 1.60586C160.553 0.962013 159.363 0.640096 157.53 0.640096C157.248 0.640096 156.923 0.655069 156.556 0.685015V7.64749ZM184.338 9.89344H178.438L178.037 10.8592C177.442 12.2592 177.144 13.1725 177.144 13.5993C177.144 14.056 177.302 14.4022 177.619 14.638C177.936 14.8739 178.343 14.9918 178.839 14.9918V15.5083H174.222V14.9918C174.91 14.887 175.421 14.6493 175.757 14.2787C176.094 13.9081 176.498 13.1276 176.972 11.9373C177.01 11.825 177.193 11.3907 177.522 10.6346L182.036 0.0673674H182.482L187.672 12.1619L188.383 13.7565C188.543 14.1158 188.759 14.3985 189.03 14.6043C189.301 14.8102 189.708 14.9394 190.25 14.9918V15.5083H184.144V14.9918C184.892 14.9918 185.398 14.9375 185.662 14.8289C185.925 14.7204 186.057 14.5051 186.057 14.1832C186.057 14.0185 185.881 13.5282 185.53 12.7121L184.338 9.89344ZM184.144 9.38813L181.394 2.89731L178.656 9.38813H184.144ZM204.273 9.79238H204.765V15.1265H204.273C204.135 14.5201 203.887 13.9848 203.528 13.5207C202.161 15.033 200.416 15.7891 198.292 15.7891C196.047 15.7891 194.212 15.0929 192.787 13.7003C191.363 12.3078 190.651 10.4662 190.651 8.17529C190.651 6.67049 190.979 5.25368 191.636 3.92481C192.293 2.59595 193.209 1.60961 194.386 0.965762C195.562 0.321918 196.853 0 198.258 0C199.419 0 200.471 0.233952 201.414 0.701862C202.357 1.16977 203.062 1.68821 203.528 2.25719C203.856 1.62083 204.055 0.962023 204.124 0.280745H204.628L204.765 6.05286H204.273C203.929 4.00154 203.228 2.57537 202.17 1.77431C201.113 0.973245 199.919 0.57272 198.59 0.57272C196.963 0.57272 195.671 1.2203 194.712 2.51547C193.754 3.81065 193.274 5.66355 193.274 8.07422C193.274 10.3576 193.798 12.1076 194.844 13.3242C195.89 14.5407 197.193 15.149 198.751 15.149C199.583 15.149 200.435 14.9506 201.305 14.5538C202.176 14.157 202.865 13.4851 203.373 12.5381C203.881 11.591 204.181 10.6758 204.273 9.79238ZM221.137 9.79238H221.629V15.1265H221.137C220.999 14.5201 220.751 13.9848 220.392 13.5207C219.025 15.033 217.28 15.7891 215.156 15.7891C212.911 15.7891 211.076 15.0929 209.651 13.7003C208.227 12.3078 207.515 10.4662 207.515 8.17529C207.515 6.67049 207.843 5.25368 208.5 3.92481C209.157 2.59595 210.073 1.60961 211.25 0.965762C212.426 0.321918 213.717 0 215.122 0C216.283 0 217.335 0.233952 218.278 0.701862C219.221 1.16977 219.926 1.68821 220.392 2.25719C220.72 1.62083 220.919 0.962023 220.988 0.280745H221.492L221.629 6.05286H221.137C220.793 4.00154 220.092 2.57537 219.034 1.77431C217.977 0.973245 216.783 0.57272 215.454 0.57272C213.827 0.57272 212.535 1.2203 211.576 2.51547C210.618 3.81065 210.138 5.66355 210.138 8.07422C210.138 10.3576 210.662 12.1076 211.708 13.3242C212.754 14.5407 214.057 15.149 215.615 15.149C216.447 15.149 217.299 14.9506 218.169 14.5538C219.04 14.157 219.729 13.4851 220.237 12.5381C220.745 11.591 221.045 10.6758 221.137 9.79238ZM224.379 7.79348C224.379 5.4427 225.181 3.55611 226.785 2.13366C228.389 0.711213 230.39 0 232.788 0C235.209 0 237.231 0.703727 238.854 2.1112C240.477 3.51868 241.289 5.43895 241.289 7.87209C241.289 10.2304 240.512 12.1394 238.957 13.5993C237.403 15.0592 235.358 15.7891 232.822 15.7891C230.355 15.7891 228.331 15.0592 226.75 13.5993C225.169 12.1394 224.379 10.2042 224.379 7.79348ZM227.002 7.87209C227.002 10.3202 227.501 12.1581 228.497 13.3859C229.494 14.6137 230.989 15.2276 232.983 15.2276C234.732 15.2276 236.114 14.6137 237.13 13.3859C238.146 12.1581 238.654 10.3277 238.654 7.89455C238.654 5.52879 238.153 3.7152 237.153 2.45371C236.152 1.19223 234.701 0.561494 232.799 0.561494C230.928 0.561494 229.494 1.17725 228.497 2.40879C227.501 3.64034 227.002 5.46142 227.002 7.87209ZM254.876 0.280747H260.066V0.797317C259.378 0.842237 258.865 0.993837 258.525 1.25212C258.185 1.51041 257.977 1.80051 257.901 2.12243C257.824 2.44436 257.786 3.06947 257.786 3.99781V9.06245C257.786 10.3576 257.734 11.3196 257.631 11.9485C257.528 12.5774 257.23 13.195 256.738 13.8014C256.245 14.4078 255.552 14.8907 254.658 15.2501C253.765 15.6094 252.734 15.7891 251.565 15.7891C250.183 15.7891 249.012 15.5589 248.054 15.0985C247.095 14.638 246.412 14.0429 246.003 13.3129C245.594 12.583 245.39 11.6041 245.39 10.3763L245.402 8.81539V4.07642C245.402 2.86359 245.365 2.08126 245.293 1.72939C245.22 1.37752 245.067 1.13421 244.834 0.999454C244.602 0.864695 244.092 0.797317 243.305 0.797317H242.95V0.280747H250.041V0.797317H249.732C248.968 0.797317 248.468 0.859081 248.231 0.982609C247.995 1.10614 247.836 1.33635 247.756 1.67324C247.676 2.01014 247.636 2.81119 247.636 4.07642V8.87154C247.636 10.5336 247.714 11.7127 247.87 12.4089C248.027 13.1052 248.468 13.7135 249.194 14.2338C249.919 14.7541 250.885 15.0142 252.092 15.0142C253.039 15.0142 253.9 14.8402 254.676 14.4921C255.451 14.1439 256.027 13.7097 256.406 13.1894C256.784 12.6691 257.015 12.1338 257.099 11.5835C257.183 11.0333 257.225 10.1667 257.225 8.98384V3.79567C257.225 2.93472 257.175 2.33206 257.076 1.98768C256.976 1.64329 256.763 1.37004 256.434 1.1679C256.106 0.965763 255.586 0.842237 254.876 0.797317V0.280747ZM275.017 15.8565L264.03 1.5834V12.1506C264.03 13.0266 264.074 13.603 264.161 13.88C264.249 14.157 264.499 14.4116 264.912 14.6437C265.324 14.8757 265.943 14.9918 266.768 14.9918V15.5083H260.971V14.9918C261.712 14.9394 262.277 14.8065 262.666 14.5931C263.056 14.3798 263.287 14.1495 263.36 13.9025C263.432 13.6554 263.468 13.0715 263.468 12.1506V4.07642C263.468 2.90851 263.413 2.12618 263.302 1.72939C263.191 1.3326 263.016 1.07806 262.775 0.965764C262.535 0.853466 261.998 0.797317 261.166 0.797317V0.280747H265.748L274.948 12.1956V3.0882C274.948 2.4144 274.877 1.94276 274.736 1.67324C274.595 1.40372 274.306 1.19036 273.871 1.03314C273.436 0.875925 272.912 0.797317 272.301 0.797317V0.280747H277.938V0.797317C277.281 0.849723 276.764 0.97325 276.386 1.1679C276.008 1.36255 275.767 1.5965 275.664 1.86976C275.561 2.14302 275.509 2.60531 275.509 3.25664V15.8565H275.017ZM279.29 3.94166H278.763L278.843 0.280747H293.92L294 3.94166H293.507C293.332 2.93846 293.091 2.21415 292.786 1.76869C292.48 1.32324 292.152 1.04999 291.8 0.94892C291.449 0.847851 290.85 0.797317 290.002 0.797317H287.504V11.5442C287.504 12.7346 287.533 13.5169 287.59 13.8913C287.647 14.2656 287.802 14.5426 288.054 14.7223C288.306 14.9019 288.78 14.9918 289.475 14.9918H290.231V15.5083H282.486V14.9918H283.288C283.953 14.9918 284.413 14.9094 284.669 14.7447C284.925 14.58 285.089 14.3236 285.161 13.9755C285.234 13.6274 285.27 12.8169 285.27 11.5442V0.797317H282.967C281.967 0.797317 281.295 0.844108 280.951 0.93769C280.607 1.03127 280.285 1.31389 279.983 1.78554C279.681 2.25719 279.45 2.97589 279.29 3.94166Z" fill="url(#paint0_linear)"/>
</g>
<defs>
<filter id="filter0_d" x="0" y="0" width="295" height="17.8565" filterUnits="userSpaceOnUse" color-interpolation-filters="sRGB">
<feFlood flood-opacity="0" result="BackgroundImageFix"/>
<feColorMatrix in="SourceAlpha" type="matrix" values="0 0 0 0 0 0 0 0 0 0 0 0 0 0 0 0 0 0 127 0"/>
<feOffset dy="1"/>
<feGaussianBlur stdDeviation="0.5"/>
<feColorMatrix type="matrix" values="0 0 0 0 0.784314 0 0 0 0 0.6 0 0 0 0 0.219608 0 0 0 1 0"/>
<feBlend mode="normal" in2="BackgroundImageFix" result="effect1_dropShadow"/>
<feBlend mode="normal" in="SourceGraphic" in2="effect1_dropShadow" result="shape"/>
</filter>
<linearGradient id="paint0_linear" x1="294" y1="0.0764659" x2="3.82591" y2="0.0764659" gradientUnits="userSpaceOnUse">
<stop stop-color="#C49330"/>
<stop offset="0.111678" stop-color="#FDE278"/>
<stop offset="0.206851" stop-color="#FFFAC8"/>
<stop offset="0.322232" stop-color="#E1C87E"/>
<stop offset="0.447435" stop-color="#C49330"/>
<stop offset="0.576206" stop-color="#D9B55D"/>
<stop offset="0.70457" stop-color="#EAD080"/>
<stop offset="0.839257" stop-color="#F5E7A7"/>
<stop offset="1" stop-color="#C49330"/>
</linearGradient>
</defs>
</svg>
