<svg width="26" height="22" viewBox="0 0 26 22" fill="none" xmlns="http://www.w3.org/2000/svg">
<path fill-rule="evenodd" clip-rule="evenodd" d="M26 2.54726C25.0447 2.97931 24.0161 3.27149 22.9371 3.40204C24.039 2.73065 24.8844 1.66605 25.2827 0.397863C24.2511 1.01952 23.1111 1.47178 21.8933 1.71423C20.9227 0.658961 19.5355 0 18.0002 0C15.0564 0 12.6681 2.43225 12.6681 5.43176C12.6681 5.8576 12.7139 6.271 12.8054 6.66887C8.37213 6.44196 4.44245 4.28169 1.80994 0.991549C1.35059 1.7966 1.0881 2.73065 1.0881 3.7253C1.0881 5.60894 2.0297 7.27188 3.46117 8.24633C2.58825 8.21991 1.76416 7.9728 1.04385 7.56872V7.63555C1.04385 10.2683 2.88278 12.4643 5.32453 12.9616C4.87738 13.0891 4.40582 13.1528 3.919 13.1528C3.57563 13.1528 3.23989 13.1202 2.91483 13.0564C3.59394 15.2136 5.5626 16.7848 7.89752 16.8268C6.07231 18.2846 3.77097 19.1534 1.27276 19.1534C0.842402 19.1534 0.416623 19.1285 0 19.0788C2.36086 20.6174 5.16582 21.5172 8.17679 21.5172C17.9896 21.5172 23.3538 13.2414 23.3538 6.06275C23.3538 5.82652 23.3492 5.59029 23.34 5.35872C24.3823 4.59252 25.2873 3.63672 26 2.54726" fill="#6F8A97"/>
</svg>
