<svg width="150" height="150" viewBox="0 0 150 150" fill="none" xmlns="http://www.w3.org/2000/svg">
<rect x="0.46" y="149.54" width="149.08" height="149.08" rx="4.14" transform="rotate(-90 0.46 149.54)" stroke="black" stroke-width="0.92" stroke-dasharray="4"/>
<path fill-rule="evenodd" clip-rule="evenodd" d="M71.457 71C68.8076 71 66.6523 68.8448 66.6523 66.1953V58.3477H63.5293V55.1445H66.6523V47.457C66.6523 44.8076 68.8076 42.6523 71.457 42.6523H79.3047V39.4492H82.5078V42.6523H90.1953C92.8448 42.6523 95 44.8076 95 47.457V66.1953C95 68.8448 92.8448 71 90.1953 71H71.457ZM71.457 45.8555C70.574 45.8555 69.8555 46.574 69.8555 47.457V66.1953C69.8555 67.0784 70.574 67.7969 71.457 67.7969H90.1953C91.0784 67.7969 91.7969 67.0784 91.7969 66.1953V47.457C91.7969 46.574 91.0784 45.8555 90.1953 45.8555H71.457ZM57.2031 36.4062H54V33.2031C54 31.4342 55.4342 30 57.2031 30H60.3262V33.2031H57.2031V36.4062ZM69.9355 33.2031H73.1387V30H69.9355V33.2031ZM66.7324 33.2031L63.5293 33.2031V30L66.7324 30V33.2031ZM54 51.9414V55.1445C54 56.9134 55.4342 58.3477 57.2031 58.3477L60.3262 58.3477V55.1445L57.2031 55.1445V51.9414H54ZM57.2031 48.8984H54V45.6953H57.2031V48.8984ZM54 42.6523H57.2031L57.2031 39.4492H54L54 42.6523ZM79.3047 33.2031H76.1816V30H79.3047C81.0736 30 82.5078 31.4342 82.5078 33.2031V36.4062H79.3047V33.2031ZM73.1387 58.668H76.3418V54.5267L82.0561 60.2408L84.3211 57.976L78.6068 52.2617H82.748V49.0586H73.1387V58.668Z" fill="#343434"/>
<path d="M21.2 95.672H25.552C25.9253 95.672 26.32 95.7147 26.736 95.8C27.152 95.8853 27.5627 96.024 27.968 96.216C28.384 96.3973 28.7787 96.6373 29.152 96.936C29.536 97.2347 29.872 97.5973 30.16 98.024C30.448 98.44 30.6773 98.9253 30.848 99.48C31.0187 100.024 31.104 100.643 31.104 101.336C31.104 102.029 31.0187 102.653 30.848 103.208C30.6773 103.752 30.448 104.237 30.16 104.664C29.872 105.08 29.536 105.437 29.152 105.736C28.7787 106.035 28.384 106.28 27.968 106.472C27.5627 106.653 27.152 106.787 26.736 106.872C26.32 106.957 25.9253 107 25.552 107H21.2V95.672ZM22.544 105.752H25.104C25.7547 105.752 26.3573 105.667 26.912 105.496C27.4667 105.325 27.9467 105.064 28.352 104.712C28.7573 104.349 29.0773 103.891 29.312 103.336C29.5467 102.781 29.664 102.115 29.664 101.336C29.664 100.557 29.5467 99.8907 29.312 99.336C29.0773 98.7813 28.7573 98.328 28.352 97.976C27.9467 97.6133 27.4667 97.3467 26.912 97.176C26.3573 97.0053 25.7547 96.92 25.104 96.92H22.544V105.752ZM33.0434 101.288C33.0434 100.947 33.0327 100.627 33.0114 100.328C32.99 100.029 32.9794 99.7573 32.9794 99.512H34.1634C34.1634 99.7147 34.1687 99.9173 34.1794 100.12C34.19 100.323 34.1954 100.531 34.1954 100.744H34.2274C34.3127 100.563 34.43 100.387 34.5794 100.216C34.7394 100.045 34.926 99.896 35.1394 99.768C35.3527 99.6293 35.5927 99.5227 35.8594 99.448C36.126 99.3627 36.414 99.32 36.7234 99.32C36.8087 99.32 36.894 99.3253 36.9794 99.336C37.0647 99.3467 37.15 99.368 37.2354 99.4L37.1554 100.664C36.942 100.6 36.718 100.568 36.4834 100.568C35.7154 100.568 35.1554 100.819 34.8034 101.32C34.462 101.811 34.2914 102.488 34.2914 103.352V107H33.0434V101.288ZM38.5724 100.472C38.9564 100.077 39.4097 99.7893 39.9324 99.608C40.4657 99.416 41.0044 99.32 41.5484 99.32C42.6577 99.32 43.4577 99.5813 43.9484 100.104C44.439 100.627 44.6844 101.421 44.6844 102.488V105.704C44.6844 105.917 44.695 106.141 44.7164 106.376C44.7377 106.6 44.7644 106.808 44.7964 107H43.5964C43.5537 106.829 43.527 106.643 43.5164 106.44C43.5164 106.227 43.5164 106.04 43.5164 105.88H43.4844C43.239 106.264 42.9084 106.579 42.4924 106.824C42.087 107.069 41.5964 107.192 41.0204 107.192C40.6364 107.192 40.2737 107.144 39.9324 107.048C39.6017 106.952 39.3084 106.813 39.0524 106.632C38.807 106.44 38.6097 106.205 38.4604 105.928C38.311 105.651 38.2364 105.331 38.2364 104.968C38.2364 104.349 38.3964 103.864 38.7164 103.512C39.0364 103.16 39.431 102.899 39.9004 102.728C40.3804 102.557 40.8924 102.451 41.4364 102.408C41.991 102.365 42.4977 102.344 42.9564 102.344H43.4364V102.12C43.4364 101.576 43.271 101.165 42.9404 100.888C42.6204 100.611 42.167 100.472 41.5804 100.472C41.175 100.472 40.775 100.541 40.3804 100.68C39.9964 100.808 39.655 101.011 39.3564 101.288L38.5724 100.472ZM42.1884 103.4C41.3884 103.4 40.7537 103.512 40.2844 103.736C39.815 103.96 39.5804 104.328 39.5804 104.84C39.5804 105.309 39.735 105.645 40.0444 105.848C40.3644 106.04 40.759 106.136 41.2284 106.136C41.591 106.136 41.9057 106.077 42.1724 105.96C42.4497 105.832 42.679 105.667 42.8604 105.464C43.0417 105.261 43.1804 105.027 43.2764 104.76C43.3724 104.483 43.4257 104.189 43.4364 103.88V103.4H42.1884ZM54.4373 106.664C54.4373 108.029 54.0853 109.064 53.3813 109.768C52.6879 110.483 51.6799 110.84 50.3573 110.84C49.6213 110.84 48.9546 110.733 48.3573 110.52C47.7706 110.307 47.2106 109.939 46.6773 109.416L47.5733 108.392C47.9679 108.819 48.3839 109.139 48.8213 109.352C49.2693 109.576 49.7813 109.688 50.3573 109.688C50.9119 109.688 51.3706 109.603 51.7333 109.432C52.1066 109.272 52.3999 109.048 52.6133 108.76C52.8266 108.483 52.9759 108.163 53.0613 107.8C53.1466 107.437 53.1893 107.059 53.1893 106.664V105.704H53.1573C52.8586 106.184 52.4693 106.536 51.9893 106.76C51.5093 106.984 51.0186 107.096 50.5173 107.096C49.9306 107.096 49.3919 107 48.9013 106.808C48.4106 106.616 47.9893 106.349 47.6373 106.008C47.2853 105.667 47.0133 105.261 46.8213 104.792C46.6293 104.323 46.5333 103.811 46.5333 103.256C46.5333 102.648 46.6293 102.099 46.8213 101.608C47.0133 101.117 47.2799 100.707 47.6213 100.376C47.9733 100.035 48.3946 99.7733 48.8853 99.592C49.3759 99.4107 49.9199 99.32 50.5173 99.32C50.7733 99.32 51.0293 99.352 51.2853 99.416C51.5413 99.4693 51.7866 99.56 52.0213 99.688C52.2666 99.8053 52.4853 99.96 52.6773 100.152C52.8693 100.333 53.0293 100.547 53.1573 100.792H53.1893V99.512H54.4373V106.664ZM47.8773 103.256C47.8773 103.64 47.9466 103.997 48.0853 104.328C48.2239 104.648 48.4106 104.931 48.6453 105.176C48.8906 105.411 49.1733 105.597 49.4933 105.736C49.8133 105.875 50.1546 105.944 50.5173 105.944C50.9439 105.944 51.3226 105.869 51.6533 105.72C51.9839 105.571 52.2613 105.373 52.4853 105.128C52.7199 104.872 52.8959 104.584 53.0133 104.264C53.1306 103.933 53.1893 103.587 53.1893 103.224C53.1893 102.819 53.1253 102.451 52.9973 102.12C52.8693 101.779 52.6879 101.485 52.4533 101.24C52.2186 100.995 51.9359 100.808 51.6053 100.68C51.2746 100.541 50.9119 100.472 50.5173 100.472C50.1226 100.472 49.7599 100.547 49.4293 100.696C49.1093 100.835 48.8319 101.032 48.5973 101.288C48.3733 101.533 48.1973 101.827 48.0693 102.168C47.9413 102.499 47.8773 102.861 47.8773 103.256ZM67.9676 105.368C67.509 105.944 67.0183 106.392 66.4956 106.712C65.973 107.032 65.333 107.192 64.5756 107.192C64.0956 107.192 63.637 107.123 63.1996 106.984C62.7623 106.835 62.3783 106.621 62.0476 106.344C61.7276 106.067 61.4663 105.731 61.2636 105.336C61.0716 104.931 60.9756 104.472 60.9756 103.96C60.9756 103.565 61.0396 103.203 61.1676 102.872C61.3063 102.531 61.4876 102.227 61.7116 101.96C61.9463 101.683 62.213 101.443 62.5116 101.24C62.821 101.027 63.1463 100.84 63.4876 100.68C63.1143 100.307 62.7943 99.912 62.5276 99.496C62.261 99.08 62.1276 98.6 62.1276 98.056C62.1276 97.64 62.2076 97.272 62.3676 96.952C62.5276 96.6213 62.741 96.3493 63.0076 96.136C63.2743 95.912 63.5836 95.7467 63.9356 95.64C64.2876 95.5227 64.661 95.464 65.0556 95.464C65.4396 95.464 65.8023 95.5173 66.1436 95.624C66.485 95.7307 66.7836 95.8907 67.0396 96.104C67.3063 96.3067 67.5143 96.568 67.6636 96.888C67.813 97.1973 67.8876 97.56 67.8876 97.976C67.8876 98.328 67.813 98.6533 67.6636 98.952C67.525 99.24 67.3383 99.5013 67.1036 99.736C66.8796 99.96 66.6236 100.168 66.3356 100.36C66.0583 100.541 65.7756 100.707 65.4876 100.856L67.8876 103.4L69.4076 100.856H70.9276L68.7516 104.344L71.3436 107H69.5036L67.9676 105.368ZM64.6556 100.04C64.869 99.9227 65.0876 99.8 65.3116 99.672C65.5356 99.544 65.7383 99.4 65.9196 99.24C66.101 99.08 66.2503 98.8933 66.3676 98.68C66.485 98.4667 66.5436 98.2213 66.5436 97.944C66.5436 97.528 66.3996 97.2027 66.1116 96.968C65.8343 96.7333 65.4983 96.616 65.1036 96.616C64.6556 96.616 64.2716 96.7547 63.9516 97.032C63.6316 97.2987 63.4716 97.6667 63.4716 98.136C63.4716 98.4453 63.5516 98.7227 63.7116 98.968C63.8823 99.2027 64.0636 99.4213 64.2556 99.624L64.6556 100.04ZM64.3196 101.496C64.0743 101.624 63.8343 101.768 63.5996 101.928C63.365 102.077 63.1516 102.248 62.9596 102.44C62.7676 102.632 62.613 102.851 62.4956 103.096C62.3783 103.341 62.3196 103.613 62.3196 103.912C62.3196 104.221 62.3783 104.504 62.4956 104.76C62.613 105.016 62.773 105.24 62.9756 105.432C63.1783 105.624 63.413 105.773 63.6796 105.88C63.9463 105.987 64.229 106.04 64.5276 106.04C64.8156 106.04 65.0823 105.997 65.3276 105.912C65.573 105.827 65.797 105.715 65.9996 105.576C66.213 105.427 66.4103 105.261 66.5916 105.08C66.7836 104.888 66.9703 104.685 67.1516 104.472L64.3196 101.496ZM83.4236 105.672H83.3916C83.157 106.099 82.7836 106.461 82.2716 106.76C81.7703 107.048 81.1836 107.192 80.5116 107.192C79.989 107.192 79.4983 107.096 79.0396 106.904C78.581 106.701 78.181 106.424 77.8396 106.072C77.509 105.72 77.2476 105.304 77.0556 104.824C76.8636 104.344 76.7676 103.821 76.7676 103.256C76.7676 102.691 76.8636 102.168 77.0556 101.688C77.2476 101.208 77.5143 100.792 77.8556 100.44C78.197 100.088 78.6076 99.816 79.0876 99.624C79.5783 99.4213 80.117 99.32 80.7036 99.32C81.2476 99.32 81.7436 99.432 82.1916 99.656C82.6503 99.88 83.0503 100.195 83.3916 100.6H83.4236V94.904H84.6716V107H83.4236V105.672ZM83.4236 103.256C83.4236 102.861 83.3596 102.499 83.2316 102.168C83.1143 101.827 82.9383 101.533 82.7036 101.288C82.469 101.032 82.1863 100.835 81.8556 100.696C81.5356 100.547 81.173 100.472 80.7676 100.472C80.3623 100.472 79.9943 100.547 79.6636 100.696C79.3436 100.835 79.0663 101.032 78.8316 101.288C78.597 101.533 78.4156 101.827 78.2876 102.168C78.1703 102.499 78.1116 102.861 78.1116 103.256C78.1116 103.651 78.1703 104.019 78.2876 104.36C78.4156 104.691 78.597 104.984 78.8316 105.24C79.0663 105.485 79.3436 105.683 79.6636 105.832C79.9943 105.971 80.3623 106.04 80.7676 106.04C81.173 106.04 81.5356 105.971 81.8556 105.832C82.1863 105.683 82.469 105.485 82.7036 105.24C82.9383 104.984 83.1143 104.691 83.2316 104.36C83.3596 104.019 83.4236 103.651 83.4236 103.256ZM86.9809 101.288C86.9809 100.947 86.9702 100.627 86.9489 100.328C86.9275 100.029 86.9169 99.7573 86.9169 99.512H88.1009C88.1009 99.7147 88.1062 99.9173 88.1169 100.12C88.1275 100.323 88.1329 100.531 88.1329 100.744H88.1649C88.2502 100.563 88.3675 100.387 88.5169 100.216C88.6769 100.045 88.8635 99.896 89.0769 99.768C89.2902 99.6293 89.5302 99.5227 89.7969 99.448C90.0635 99.3627 90.3515 99.32 90.6609 99.32C90.7462 99.32 90.8315 99.3253 90.9169 99.336C91.0022 99.3467 91.0875 99.368 91.1729 99.4L91.0929 100.664C90.8795 100.6 90.6555 100.568 90.4209 100.568C89.6529 100.568 89.0929 100.819 88.7409 101.32C88.3995 101.811 88.2289 102.488 88.2289 103.352V107H86.9809V101.288ZM91.8926 103.256C91.8926 102.669 91.994 102.136 92.1966 101.656C92.3993 101.176 92.6766 100.765 93.0286 100.424C93.3806 100.072 93.802 99.8 94.2926 99.608C94.7833 99.416 95.3166 99.32 95.8926 99.32C96.4686 99.32 97.002 99.416 97.4926 99.608C97.9833 99.8 98.4046 100.072 98.7566 100.424C99.1086 100.765 99.386 101.176 99.5886 101.656C99.7913 102.136 99.8926 102.669 99.8926 103.256C99.8926 103.843 99.7913 104.376 99.5886 104.856C99.386 105.336 99.1086 105.752 98.7566 106.104C98.4046 106.445 97.9833 106.712 97.4926 106.904C97.002 107.096 96.4686 107.192 95.8926 107.192C95.3166 107.192 94.7833 107.096 94.2926 106.904C93.802 106.712 93.3806 106.445 93.0286 106.104C92.6766 105.752 92.3993 105.336 92.1966 104.856C91.994 104.376 91.8926 103.843 91.8926 103.256ZM93.2366 103.256C93.2366 103.651 93.2953 104.019 93.4126 104.36C93.5406 104.691 93.722 104.984 93.9566 105.24C94.1913 105.485 94.4686 105.683 94.7886 105.832C95.1193 105.971 95.4873 106.04 95.8926 106.04C96.298 106.04 96.6606 105.971 96.9806 105.832C97.3113 105.683 97.594 105.485 97.8286 105.24C98.0633 104.984 98.2393 104.691 98.3566 104.36C98.4846 104.019 98.5486 103.651 98.5486 103.256C98.5486 102.861 98.4846 102.499 98.3566 102.168C98.2393 101.827 98.0633 101.533 97.8286 101.288C97.594 101.032 97.3113 100.835 96.9806 100.696C96.6606 100.547 96.298 100.472 95.8926 100.472C95.4873 100.472 95.1193 100.547 94.7886 100.696C94.4686 100.835 94.1913 101.032 93.9566 101.288C93.722 101.533 93.5406 101.827 93.4126 102.168C93.2953 102.499 93.2366 102.861 93.2366 103.256ZM101.761 99.512H103.009V100.6H103.041C103.382 100.195 103.777 99.88 104.225 99.656C104.683 99.432 105.185 99.32 105.729 99.32C106.315 99.32 106.849 99.4213 107.329 99.624C107.819 99.816 108.235 100.088 108.577 100.44C108.918 100.792 109.185 101.208 109.377 101.688C109.569 102.168 109.665 102.691 109.665 103.256C109.665 103.821 109.569 104.344 109.377 104.824C109.185 105.304 108.918 105.72 108.577 106.072C108.246 106.424 107.851 106.701 107.393 106.904C106.934 107.096 106.443 107.192 105.921 107.192C105.249 107.192 104.657 107.048 104.145 106.76C103.643 106.461 103.275 106.099 103.041 105.672H103.009V110.648H101.761V99.512ZM103.009 103.256C103.009 103.651 103.067 104.019 103.185 104.36C103.313 104.691 103.494 104.984 103.729 105.24C103.963 105.485 104.241 105.683 104.561 105.832C104.891 105.971 105.259 106.04 105.665 106.04C106.07 106.04 106.433 105.971 106.753 105.832C107.083 105.683 107.366 105.485 107.601 105.24C107.835 104.984 108.011 104.691 108.129 104.36C108.257 104.019 108.321 103.651 108.321 103.256C108.321 102.861 108.257 102.499 108.129 102.168C108.011 101.827 107.835 101.533 107.601 101.288C107.366 101.032 107.083 100.835 106.753 100.696C106.433 100.547 106.07 100.472 105.665 100.472C105.259 100.472 104.891 100.547 104.561 100.696C104.241 100.835 103.963 101.032 103.729 101.288C103.494 101.533 103.313 101.827 103.185 102.168C103.067 102.499 103.009 102.861 103.009 103.256ZM115.627 103.256C115.627 102.669 115.728 102.136 115.931 101.656C116.134 101.176 116.411 100.765 116.763 100.424C117.115 100.072 117.536 99.8 118.027 99.608C118.518 99.416 119.051 99.32 119.627 99.32C120.203 99.32 120.736 99.416 121.227 99.608C121.718 99.8 122.139 100.072 122.491 100.424C122.843 100.765 123.12 101.176 123.323 101.656C123.526 102.136 123.627 102.669 123.627 103.256C123.627 103.843 123.526 104.376 123.323 104.856C123.12 105.336 122.843 105.752 122.491 106.104C122.139 106.445 121.718 106.712 121.227 106.904C120.736 107.096 120.203 107.192 119.627 107.192C119.051 107.192 118.518 107.096 118.027 106.904C117.536 106.712 117.115 106.445 116.763 106.104C116.411 105.752 116.134 105.336 115.931 104.856C115.728 104.376 115.627 103.843 115.627 103.256ZM116.971 103.256C116.971 103.651 117.03 104.019 117.147 104.36C117.275 104.691 117.456 104.984 117.691 105.24C117.926 105.485 118.203 105.683 118.523 105.832C118.854 105.971 119.222 106.04 119.627 106.04C120.032 106.04 120.395 105.971 120.715 105.832C121.046 105.683 121.328 105.485 121.563 105.24C121.798 104.984 121.974 104.691 122.091 104.36C122.219 104.019 122.283 103.651 122.283 103.256C122.283 102.861 122.219 102.499 122.091 102.168C121.974 101.827 121.798 101.533 121.563 101.288C121.328 101.032 121.046 100.835 120.715 100.696C120.395 100.547 120.032 100.472 119.627 100.472C119.222 100.472 118.854 100.547 118.523 100.696C118.203 100.835 117.926 101.032 117.691 101.288C117.456 101.533 117.275 101.827 117.147 102.168C117.03 102.499 116.971 102.861 116.971 103.256ZM125.559 101.288C125.559 100.947 125.548 100.627 125.527 100.328C125.506 100.029 125.495 99.7573 125.495 99.512H126.679C126.679 99.7147 126.684 99.9173 126.695 100.12C126.706 100.323 126.711 100.531 126.711 100.744H126.743C126.828 100.563 126.946 100.387 127.095 100.216C127.255 100.045 127.442 99.896 127.655 99.768C127.868 99.6293 128.108 99.5227 128.375 99.448C128.642 99.3627 128.93 99.32 129.239 99.32C129.324 99.32 129.41 99.3253 129.495 99.336C129.58 99.3467 129.666 99.368 129.751 99.4L129.671 100.664C129.458 100.6 129.234 100.568 128.999 100.568C128.231 100.568 127.671 100.819 127.319 101.32C126.978 101.811 126.807 102.488 126.807 103.352V107H125.559V101.288ZM45.779 126.68C45.779 127.299 45.699 127.885 45.539 128.44C45.3897 128.995 45.1443 129.485 44.803 129.912C44.4723 130.328 44.035 130.664 43.491 130.92C42.947 131.165 42.2857 131.288 41.507 131.288C40.7283 131.288 40.067 131.165 39.523 130.92C38.979 130.664 38.5363 130.328 38.195 129.912C37.8643 129.485 37.619 128.995 37.459 128.44C37.3097 127.885 37.235 127.299 37.235 126.68V119.672H38.579V126.488C38.579 126.947 38.627 127.389 38.723 127.816C38.819 128.243 38.979 128.621 39.203 128.952C39.427 129.283 39.7257 129.549 40.099 129.752C40.4723 129.944 40.9417 130.04 41.507 130.04C42.0723 130.04 42.5417 129.944 42.915 129.752C43.2883 129.549 43.587 129.283 43.811 128.952C44.035 128.621 44.195 128.243 44.291 127.816C44.387 127.389 44.435 126.947 44.435 126.488V119.672H45.779V126.68ZM48.2606 123.512H49.5086V124.6H49.5406C49.882 124.195 50.2766 123.88 50.7246 123.656C51.1833 123.432 51.6846 123.32 52.2286 123.32C52.8153 123.32 53.3486 123.421 53.8286 123.624C54.3193 123.816 54.7353 124.088 55.0766 124.44C55.418 124.792 55.6846 125.208 55.8766 125.688C56.0686 126.168 56.1646 126.691 56.1646 127.256C56.1646 127.821 56.0686 128.344 55.8766 128.824C55.6846 129.304 55.418 129.72 55.0766 130.072C54.746 130.424 54.3513 130.701 53.8926 130.904C53.434 131.096 52.9433 131.192 52.4206 131.192C51.7486 131.192 51.1566 131.048 50.6446 130.76C50.1433 130.461 49.7753 130.099 49.5406 129.672H49.5086V134.648H48.2606V123.512ZM49.5086 127.256C49.5086 127.651 49.5673 128.019 49.6846 128.36C49.8126 128.691 49.994 128.984 50.2286 129.24C50.4633 129.485 50.7406 129.683 51.0606 129.832C51.3913 129.971 51.7593 130.04 52.1646 130.04C52.57 130.04 52.9326 129.971 53.2526 129.832C53.5833 129.683 53.866 129.485 54.1006 129.24C54.3353 128.984 54.5113 128.691 54.6286 128.36C54.7566 128.019 54.8206 127.651 54.8206 127.256C54.8206 126.861 54.7566 126.499 54.6286 126.168C54.5113 125.827 54.3353 125.533 54.1006 125.288C53.866 125.032 53.5833 124.835 53.2526 124.696C52.9326 124.547 52.57 124.472 52.1646 124.472C51.7593 124.472 51.3913 124.547 51.0606 124.696C50.7406 124.835 50.4633 125.032 50.2286 125.288C49.994 125.533 49.8126 125.827 49.6846 126.168C49.5673 126.499 49.5086 126.861 49.5086 127.256ZM58.2179 118.904H59.4659V131H58.2179V118.904ZM61.5176 127.256C61.5176 126.669 61.619 126.136 61.8216 125.656C62.0243 125.176 62.3016 124.765 62.6536 124.424C63.0056 124.072 63.427 123.8 63.9176 123.608C64.4083 123.416 64.9416 123.32 65.5176 123.32C66.0936 123.32 66.627 123.416 67.1176 123.608C67.6083 123.8 68.0296 124.072 68.3816 124.424C68.7336 124.765 69.011 125.176 69.2136 125.656C69.4163 126.136 69.5176 126.669 69.5176 127.256C69.5176 127.843 69.4163 128.376 69.2136 128.856C69.011 129.336 68.7336 129.752 68.3816 130.104C68.0296 130.445 67.6083 130.712 67.1176 130.904C66.627 131.096 66.0936 131.192 65.5176 131.192C64.9416 131.192 64.4083 131.096 63.9176 130.904C63.427 130.712 63.0056 130.445 62.6536 130.104C62.3016 129.752 62.0243 129.336 61.8216 128.856C61.619 128.376 61.5176 127.843 61.5176 127.256ZM62.8616 127.256C62.8616 127.651 62.9203 128.019 63.0376 128.36C63.1656 128.691 63.347 128.984 63.5816 129.24C63.8163 129.485 64.0936 129.683 64.4136 129.832C64.7443 129.971 65.1123 130.04 65.5176 130.04C65.923 130.04 66.2856 129.971 66.6056 129.832C66.9363 129.683 67.219 129.485 67.4536 129.24C67.6883 128.984 67.8643 128.691 67.9816 128.36C68.1096 128.019 68.1736 127.651 68.1736 127.256C68.1736 126.861 68.1096 126.499 67.9816 126.168C67.8643 125.827 67.6883 125.533 67.4536 125.288C67.219 125.032 66.9363 124.835 66.6056 124.696C66.2856 124.547 65.923 124.472 65.5176 124.472C65.1123 124.472 64.7443 124.547 64.4136 124.696C64.0936 124.835 63.8163 125.032 63.5816 125.288C63.347 125.533 63.1656 125.827 63.0376 126.168C62.9203 126.499 62.8616 126.861 62.8616 127.256ZM71.3536 124.472C71.7376 124.077 72.191 123.789 72.7136 123.608C73.247 123.416 73.7856 123.32 74.3296 123.32C75.439 123.32 76.239 123.581 76.7296 124.104C77.2203 124.627 77.4656 125.421 77.4656 126.488V129.704C77.4656 129.917 77.4763 130.141 77.4976 130.376C77.519 130.6 77.5456 130.808 77.5776 131H76.3776C76.335 130.829 76.3083 130.643 76.2976 130.44C76.2976 130.227 76.2976 130.04 76.2976 129.88H76.2656C76.0203 130.264 75.6896 130.579 75.2736 130.824C74.8683 131.069 74.3776 131.192 73.8016 131.192C73.4176 131.192 73.055 131.144 72.7136 131.048C72.383 130.952 72.0896 130.813 71.8336 130.632C71.5883 130.44 71.391 130.205 71.2416 129.928C71.0923 129.651 71.0176 129.331 71.0176 128.968C71.0176 128.349 71.1776 127.864 71.4976 127.512C71.8176 127.16 72.2123 126.899 72.6816 126.728C73.1616 126.557 73.6736 126.451 74.2176 126.408C74.7723 126.365 75.279 126.344 75.7376 126.344H76.2176V126.12C76.2176 125.576 76.0523 125.165 75.7216 124.888C75.4016 124.611 74.9483 124.472 74.3616 124.472C73.9563 124.472 73.5563 124.541 73.1616 124.68C72.7776 124.808 72.4363 125.011 72.1376 125.288L71.3536 124.472ZM74.9696 127.4C74.1696 127.4 73.535 127.512 73.0656 127.736C72.5963 127.96 72.3616 128.328 72.3616 128.84C72.3616 129.309 72.5163 129.645 72.8256 129.848C73.1456 130.04 73.5403 130.136 74.0096 130.136C74.3723 130.136 74.687 130.077 74.9536 129.96C75.231 129.832 75.4603 129.667 75.6416 129.464C75.823 129.261 75.9616 129.027 76.0576 128.76C76.1536 128.483 76.207 128.189 76.2176 127.88V127.4H74.9696ZM85.9705 129.672H85.9385C85.7038 130.099 85.3305 130.461 84.8185 130.76C84.3172 131.048 83.7305 131.192 83.0585 131.192C82.5358 131.192 82.0452 131.096 81.5865 130.904C81.1278 130.701 80.7278 130.424 80.3865 130.072C80.0558 129.72 79.7945 129.304 79.6025 128.824C79.4105 128.344 79.3145 127.821 79.3145 127.256C79.3145 126.691 79.4105 126.168 79.6025 125.688C79.7945 125.208 80.0612 124.792 80.4025 124.44C80.7438 124.088 81.1545 123.816 81.6345 123.624C82.1252 123.421 82.6638 123.32 83.2505 123.32C83.7945 123.32 84.2905 123.432 84.7385 123.656C85.1972 123.88 85.5972 124.195 85.9385 124.6H85.9705V118.904H87.2185V131H85.9705V129.672ZM85.9705 127.256C85.9705 126.861 85.9065 126.499 85.7785 126.168C85.6612 125.827 85.4852 125.533 85.2505 125.288C85.0158 125.032 84.7332 124.835 84.4025 124.696C84.0825 124.547 83.7198 124.472 83.3145 124.472C82.9092 124.472 82.5412 124.547 82.2105 124.696C81.8905 124.835 81.6132 125.032 81.3785 125.288C81.1438 125.533 80.9625 125.827 80.8345 126.168C80.7172 126.499 80.6585 126.861 80.6585 127.256C80.6585 127.651 80.7172 128.019 80.8345 128.36C80.9625 128.691 81.1438 128.984 81.3785 129.24C81.6132 129.485 81.8905 129.683 82.2105 129.832C82.5412 129.971 82.9092 130.04 83.3145 130.04C83.7198 130.04 84.0825 129.971 84.4025 129.832C84.7332 129.683 85.0158 129.485 85.2505 129.24C85.4852 128.984 85.6612 128.691 85.7785 128.36C85.9065 128.019 85.9705 127.651 85.9705 127.256ZM97.6929 124.568H95.8689V131H94.6209V124.568H92.9889V123.512H94.6209V121.832C94.6209 121.373 94.6635 120.957 94.7489 120.584C94.8342 120.2 94.9782 119.869 95.1809 119.592C95.3942 119.315 95.6715 119.101 96.0129 118.952C96.3542 118.792 96.7755 118.712 97.2769 118.712C97.4369 118.712 97.6075 118.728 97.7889 118.76C97.9702 118.792 98.1195 118.84 98.2369 118.904L98.0609 120.024C97.7622 119.917 97.4795 119.864 97.2129 119.864C96.8929 119.864 96.6422 119.923 96.4609 120.04C96.2795 120.147 96.1409 120.301 96.0449 120.504C95.9595 120.696 95.9062 120.931 95.8849 121.208C95.8742 121.485 95.8689 121.784 95.8689 122.104V123.512H97.6929V124.568ZM98.8449 123.512H100.093V131H98.8449V123.512ZM98.5569 120.584C98.5569 120.339 98.6422 120.125 98.8129 119.944C98.9942 119.763 99.2129 119.672 99.4689 119.672C99.7249 119.672 99.9382 119.763 100.109 119.944C100.29 120.125 100.381 120.339 100.381 120.584C100.381 120.851 100.296 121.069 100.125 121.24C99.9542 121.411 99.7355 121.496 99.4689 121.496C99.2022 121.496 98.9835 121.411 98.8129 121.24C98.6422 121.069 98.5569 120.851 98.5569 120.584ZM102.687 118.904H103.935V131H102.687V118.904ZM113.106 129.64C112.658 130.216 112.168 130.621 111.634 130.856C111.101 131.08 110.482 131.192 109.778 131.192C109.192 131.192 108.664 131.091 108.194 130.888C107.725 130.675 107.325 130.392 106.994 130.04C106.674 129.688 106.424 129.272 106.242 128.792C106.072 128.312 105.986 127.8 105.986 127.256C105.986 126.68 106.082 126.152 106.274 125.672C106.466 125.181 106.733 124.765 107.074 124.424C107.416 124.072 107.821 123.8 108.29 123.608C108.76 123.416 109.272 123.32 109.826 123.32C110.349 123.32 110.829 123.411 111.266 123.592C111.704 123.763 112.077 124.019 112.386 124.36C112.706 124.691 112.952 125.101 113.122 125.592C113.293 126.072 113.378 126.621 113.378 127.24V127.64H107.33C107.352 127.96 107.426 128.269 107.554 128.568C107.693 128.856 107.869 129.112 108.082 129.336C108.296 129.549 108.546 129.72 108.834 129.848C109.122 129.976 109.437 130.04 109.778 130.04C110.322 130.04 110.781 129.944 111.154 129.752C111.528 129.56 111.864 129.277 112.162 128.904L113.106 129.64ZM112.034 126.584C112.013 125.944 111.805 125.432 111.41 125.048C111.016 124.664 110.472 124.472 109.778 124.472C109.085 124.472 108.525 124.664 108.098 125.048C107.672 125.432 107.416 125.944 107.33 126.584H112.034Z" fill="#5D5D5D"/>
</svg>
